<svg width="1440" height="715" viewBox="0 0 1440 715" fill="none" xmlns="http://www.w3.org/2000/svg">
<mask id="mask0" style="mask-type:alpha" maskUnits="userSpaceOnUse" x="0" y="0" width="1440" height="715">
<rect width="1440" height="715" fill="url(#paint0_radial)"/>
</mask>
<g mask="url(#mask0)">
<path d="M1042.2 -814.047C1027.48 -823.844 1012.39 -833.041 996.954 -841.593C982.954 -849.292 968.673 -856.415 954.116 -862.892M1042.2 -814.047C1045.15 -816.744 1048.22 -819.349 1051.53 -821.585C1053.64 -822.991 1055.83 -824.259 1058.22 -825.135C1041.81 -832.488 1025.15 -839.265 1008.28 -845.443C990.438 -851.897 972.367 -857.729 954.116 -862.892M1042.2 -814.047C1022.5 -821.193 1002.56 -827.578 982.408 -833.249C961.081 -839.173 939.57 -844.29 917.886 -848.67C924.323 -852.335 930.94 -855.631 937.835 -858.282C943.131 -860.287 948.552 -861.901 954.116 -862.892M917.882 -848.659C903.895 -856.755 889.602 -864.248 874.954 -871.022M917.882 -848.659C924.319 -852.325 930.937 -855.619 937.831 -858.286C943.118 -860.282 948.549 -861.882 954.112 -862.88C934.987 -868.238 915.699 -872.901 896.261 -876.868C876.14 -880.928 855.88 -884.268 835.527 -886.89M917.882 -848.659C895.267 -853.16 872.508 -856.825 849.636 -859.725C826.137 -862.601 802.554 -864.689 778.912 -865.942C788.79 -870.999 798.911 -875.546 809.316 -879.35C817.893 -882.436 826.623 -885.011 835.527 -886.89M874.954 -871.022C862.063 -876.938 848.916 -882.25 835.527 -886.89M874.954 -871.022C862.051 -876.938 848.916 -882.25 835.527 -886.89M709.398 -893.582C688.304 -893.118 667.239 -891.932 646.224 -890.004C625.562 -888.028 604.975 -885.356 584.494 -881.94C592.504 -880.359 600.353 -878.105 608.055 -875.363C617.539 -871.947 626.74 -867.787 635.719 -863.162C648.372 -869.925 661.312 -876.13 674.57 -881.568M709.398 -893.582C697.571 -890.236 685.969 -886.192 674.57 -881.568M709.398 -893.582C720.493 -890.678 731.385 -887.075 742.086 -882.916C754.661 -877.942 766.925 -872.226 778.912 -865.951C754.996 -867.159 731.059 -867.555 707.114 -867.113C683.278 -866.602 659.464 -865.3 635.717 -863.162C648.372 -869.925 661.312 -876.13 674.57 -881.568M499.843 -840.723C494.392 -844.082 488.762 -847.141 482.862 -849.596C478.475 -851.403 473.966 -852.84 469.313 -853.72C487.766 -859.721 506.416 -865.026 525.234 -869.683C544.844 -874.478 564.608 -878.556 584.497 -881.938M499.843 -840.723C514.156 -849.318 528.793 -857.311 543.787 -864.586C557.102 -870.98 570.669 -876.795 584.497 -881.938M499.843 -840.723C521.798 -846.028 543.923 -850.523 566.187 -854.253C589.26 -858.029 612.449 -860.995 635.72 -863.149C626.742 -867.783 617.539 -871.953 608.053 -875.382C600.354 -878.116 592.504 -880.363 584.497 -881.938M499.843 -840.723C514.156 -849.318 528.793 -857.311 543.789 -864.586C557.104 -870.98 570.669 -876.795 584.497 -881.938M380.913 -802.201C378.801 -804.708 376.628 -807.191 374.278 -809.491C372.936 -810.801 371.536 -812.043 369.955 -813.055C385.519 -820.804 401.349 -828.001 417.408 -834.624C434.484 -841.637 451.8 -847.984 469.316 -853.732M380.913 -802.201C395.626 -812.388 410.699 -822.023 426.15 -831.014C440.246 -839.154 454.632 -846.765 469.316 -853.732M380.913 -802.201C399.615 -809.905 418.596 -816.872 437.805 -823.172C458.273 -829.795 478.967 -835.636 499.844 -840.74C494.392 -844.098 488.761 -847.156 482.862 -849.616C478.476 -851.41 473.965 -852.858 469.316 -853.732M380.913 -802.201C395.626 -812.388 410.699 -822.023 426.152 -831.014C440.246 -839.154 454.632 -846.765 469.316 -853.732M380.908 -802.188C384.27 -798.151 387.47 -793.978 390.612 -789.76C395.234 -783.524 399.717 -777.196 404.136 -770.801C383.189 -764.338 362.468 -757.126 342.042 -749.098C323.388 -741.705 305.01 -733.608 286.98 -724.741M380.908 -802.188C364.91 -791.008 349.367 -779.192 334.251 -766.81C317.979 -753.384 302.237 -739.346 286.98 -724.741M380.908 -802.188C363.556 -794.954 346.467 -787.107 329.701 -778.557C314.289 -770.642 299.172 -762.161 284.4 -753.067C283.996 -749.257 284.091 -745.401 284.393 -741.591C284.877 -735.922 285.832 -730.297 286.98 -724.741M380.908 -802.188C364.91 -791.008 349.365 -779.192 334.248 -766.81C317.979 -753.384 302.237 -739.346 286.98 -724.741M499.838 -840.72C507.154 -836.16 514.12 -831.049 520.88 -825.665C529.758 -818.561 538.254 -810.953 546.522 -803.116C521.746 -799.244 497.105 -794.592 472.637 -789.047C449.602 -783.753 426.751 -777.704 404.134 -770.784M499.838 -840.72C483.823 -831.027 468.251 -820.623 453.075 -809.624M499.838 -840.72C478.959 -835.61 458.265 -829.766 437.799 -823.144C418.589 -816.865 399.609 -809.899 380.906 -802.177C384.27 -798.144 387.471 -793.973 390.612 -789.757C395.234 -783.524 399.716 -777.177 404.134 -770.784M404.134 -770.784C419.969 -784.349 436.262 -797.342 453.075 -809.624M404.134 -770.784C419.967 -784.349 436.262 -797.342 453.075 -809.624M635.72 -863.162C646.78 -857.376 657.458 -850.899 667.851 -843.96C680.532 -835.407 692.763 -826.209 704.662 -816.573M635.72 -863.162C621.063 -855.232 606.823 -846.542 592.938 -837.298C576.999 -826.578 561.556 -815.121 546.526 -803.134M635.72 -863.162C612.448 -860.996 589.259 -858.022 566.185 -854.241C543.922 -850.53 521.796 -846.035 499.841 -840.732C507.156 -836.168 514.126 -831.074 520.886 -825.679C529.761 -818.556 538.259 -810.972 546.526 -803.134M635.72 -863.162C621.063 -855.232 606.823 -846.542 592.936 -837.298C576.996 -826.578 561.556 -815.121 546.526 -803.134M704.662 -816.573C677.871 -816.066 651.122 -814.683 624.419 -812.447C598.362 -810.188 572.387 -807.099 546.526 -803.134M704.662 -816.573C692.764 -826.221 680.532 -835.407 667.853 -843.946C657.461 -850.893 646.782 -857.379 635.72 -863.172C659.467 -865.295 683.282 -866.61 707.117 -867.118C731.063 -867.557 755 -867.164 778.917 -865.964C766.938 -859.756 755.357 -852.832 744.068 -845.4C730.505 -836.422 717.411 -826.728 704.662 -816.573ZM778.916 -865.951C792.965 -858.523 806.599 -850.31 819.896 -841.566C835.325 -831.324 850.269 -820.343 864.815 -808.831M778.916 -865.951C766.938 -859.745 755.355 -852.825 744.066 -845.396C730.504 -836.399 717.408 -826.733 704.66 -816.582C731.591 -817.02 758.51 -816.628 785.412 -815.359C811.947 -814.045 838.422 -811.876 864.815 -808.831M778.916 -865.951C802.558 -864.682 826.148 -862.606 849.648 -859.722C872.51 -856.816 895.269 -853.147 917.886 -848.649C909.511 -843.827 901.49 -838.383 893.695 -832.615C883.707 -825.141 874.134 -817.159 864.815 -808.831M917.885 -848.663C933.671 -839.431 949.02 -829.488 963.983 -818.925C980.713 -807.053 996.923 -794.446 1012.69 -781.265M917.885 -848.663C909.51 -843.817 901.493 -838.398 893.707 -832.611C883.717 -825.148 874.135 -817.156 864.816 -808.844C890.357 -805.835 915.794 -802.001 941.081 -797.316C965.121 -792.769 989.005 -787.465 1012.69 -781.265M917.885 -848.663C939.568 -844.276 961.089 -839.156 982.408 -833.231C1002.56 -827.559 1022.51 -821.198 1042.21 -814.034C1037.76 -809.923 1033.57 -805.537 1029.49 -801.059C1023.68 -794.629 1018.13 -787.993 1012.69 -781.265M1042.21 -814.035C1058.33 -803.228 1074.01 -791.761 1089.26 -779.703C1105.8 -766.53 1121.82 -752.721 1137.34 -738.342M1042.21 -814.035C1037.76 -809.917 1033.57 -805.549 1029.49 -801.067C1023.69 -794.628 1018.13 -788.008 1012.68 -781.251C1034.81 -775.404 1056.72 -768.806 1078.39 -761.343C1098.31 -754.427 1118 -746.783 1137.34 -738.342M1042.21 -814.035C1058.33 -803.228 1074.01 -791.761 1089.27 -779.703C1105.8 -766.53 1121.82 -752.721 1137.34 -738.342M1042.21 -814.035C1060.59 -807.3 1078.73 -799.884 1096.57 -791.761C1113.05 -784.208 1129.24 -776.018 1145.11 -767.19C1144.58 -763.277 1143.71 -759.432 1142.7 -755.61C1141.16 -749.786 1139.31 -744.052 1137.34 -738.342M1145.11 -767.189C1160.37 -755.215 1175.19 -742.681 1189.57 -729.607C1204.78 -715.724 1219.45 -701.258 1233.64 -686.274M1145.11 -767.189C1144.59 -763.28 1143.7 -759.416 1142.7 -755.597C1141.16 -749.779 1139.31 -744.029 1137.34 -738.323C1154.92 -730.595 1172.21 -722.194 1189.12 -713.051C1204.32 -704.74 1219.18 -695.844 1233.64 -686.274M1145.11 -767.189C1160.37 -755.215 1175.19 -742.681 1189.58 -729.607C1204.77 -715.724 1219.45 -701.258 1233.64 -686.274M1145.11 -767.189C1159.63 -759.034 1173.86 -750.363 1187.74 -741.086C1200.37 -732.594 1212.68 -723.654 1224.65 -714.219C1226.82 -710.513 1228.56 -706.582 1229.95 -702.493C1231.7 -697.237 1232.86 -691.778 1233.64 -686.274M1316.93 -583.965C1304.02 -602.286 1290.52 -620.167 1276.4 -637.543C1262.71 -654.282 1248.46 -670.56 1233.64 -686.289M1316.93 -583.965C1315.39 -592.928 1313.34 -601.802 1310.62 -610.502C1308.33 -617.641 1305.59 -624.648 1302.32 -631.392C1292.34 -641.014 1281.94 -650.153 1271.19 -658.83C1259.07 -668.561 1246.54 -677.678 1233.64 -686.289M1316.93 -583.965C1304.69 -593.257 1291.98 -601.868 1278.93 -609.93C1263.92 -619.113 1248.48 -627.548 1232.72 -635.347C1233.91 -644.946 1234.72 -654.612 1234.86 -664.3C1234.93 -671.659 1234.62 -678.996 1233.64 -686.289M1232.72 -635.354C1217.6 -654.119 1201.87 -672.394 1185.52 -690.068C1170.02 -706.738 1153.97 -722.851 1137.34 -738.341M1232.72 -635.354C1233.91 -644.959 1234.72 -654.609 1234.86 -664.304C1234.94 -671.659 1234.62 -679.013 1233.64 -686.279C1219.18 -695.862 1204.32 -704.754 1189.12 -713.045C1172.21 -722.205 1154.92 -730.607 1137.34 -738.341M1232.72 -635.354C1214.79 -644.157 1196.48 -652.158 1177.92 -659.468C1157.07 -667.625 1135.91 -674.935 1114.53 -681.532C1119.24 -692.318 1123.84 -703.128 1128.22 -714.048C1131.41 -722.094 1134.51 -730.161 1137.34 -738.341M1114.54 -681.55C1098.01 -700.086 1080.92 -718.058 1063.2 -735.422M1114.54 -681.55C1119.25 -692.306 1123.83 -703.153 1128.22 -714.067C1131.42 -722.095 1134.51 -730.168 1137.35 -738.353C1117.99 -746.787 1098.32 -754.431 1078.39 -761.354C1056.73 -768.818 1034.81 -775.403 1012.68 -781.266M1114.54 -681.55C1098.01 -700.063 1080.92 -718.058 1063.2 -735.422M1114.54 -681.55C1090.92 -688.766 1067.08 -695.102 1043.05 -700.717C1017 -706.715 990.782 -711.857 964.429 -716.232C973.189 -728.724 982.071 -741.127 991.168 -753.372C998.182 -762.775 1005.32 -772.111 1012.68 -781.266M1063.2 -735.422C1046.89 -751.297 1030.08 -766.631 1012.68 -781.266M1012.68 -781.266C989.007 -787.446 965.12 -792.784 941.081 -797.305C915.796 -802.008 890.355 -805.848 864.817 -808.846M1012.68 -781.266C1005.32 -772.11 998.182 -762.795 991.157 -753.366C982.073 -741.12 973.191 -728.716 964.429 -716.22M964.429 -716.22C947.883 -733.737 930.849 -750.776 913.238 -767.157C897.574 -781.629 881.464 -795.578 864.817 -808.846M964.429 -716.22C947.883 -733.737 930.849 -750.776 913.227 -767.157C897.574 -781.629 881.464 -795.578 864.817 -808.846M964.429 -716.22C936.432 -720.787 908.313 -724.49 880.114 -727.398C850.796 -730.351 821.409 -732.464 791.98 -733.737C804.619 -748.209 817.561 -762.408 830.941 -776.176C841.905 -787.422 853.143 -798.373 864.817 -808.846M704.656 -816.57C677.867 -816.046 651.116 -814.68 624.417 -812.426C598.359 -810.172 572.384 -807.076 546.522 -803.115C557.077 -793.052 567.241 -782.556 577.165 -771.856C589.454 -758.515 601.359 -744.809 613.011 -730.899C628.491 -747.268 644.391 -763.227 660.835 -778.595C675.016 -791.754 689.581 -804.481 704.656 -816.57ZM704.656 -816.57C718.929 -804.936 732.705 -792.687 746.126 -780.052C761.879 -765.117 777.125 -749.613 791.978 -733.722C762.061 -734.974 732.116 -735.361 702.18 -734.906C672.426 -734.405 642.693 -733.062 613.009 -730.899C628.492 -747.268 644.394 -763.227 660.844 -778.595C675.016 -791.754 689.581 -804.481 704.656 -816.57ZM445.307 -708.23C437.677 -720.207 429.98 -732.139 422.171 -744.003C416.243 -752.986 410.251 -761.946 404.136 -770.793C426.752 -777.712 449.604 -783.746 472.636 -789.054C497.106 -794.589 521.748 -799.239 546.523 -803.118M445.307 -708.23C462.011 -726.083 479.223 -743.436 497.04 -760.154C513.04 -775.057 529.502 -789.439 546.523 -803.118M445.307 -708.23C472.305 -713.606 499.452 -718.12 526.714 -721.841C555.392 -725.697 584.167 -728.691 613.011 -730.891C601.359 -744.82 589.451 -758.498 577.16 -771.836C567.238 -782.566 557.075 -793.046 546.523 -803.118M445.307 -708.23C462.011 -726.083 479.225 -743.436 497.044 -760.154C513.04 -775.057 529.502 -789.439 546.523 -803.118M303.298 -669.776C299.625 -680.165 296.138 -690.643 293.014 -701.211C290.738 -708.992 288.655 -716.817 286.982 -724.732C305.013 -733.614 323.391 -741.709 342.043 -749.106C362.469 -757.134 383.188 -764.329 404.138 -770.805M303.298 -669.776C319.563 -688.462 336.398 -706.608 353.863 -724.102C370.082 -740.269 386.821 -755.875 404.138 -770.805M303.298 -669.776C325.432 -677.556 347.835 -684.459 370.441 -690.643C395.207 -697.321 420.179 -703.168 445.31 -708.227C437.679 -720.212 429.983 -732.152 422.171 -744.025C416.245 -752.997 410.252 -761.946 404.138 -770.805M303.298 -669.776C319.563 -688.462 336.4 -706.608 353.866 -724.102C370.084 -740.269 386.821 -755.875 404.138 -770.805M194.5 -621.558C194.144 -630.95 194.224 -640.364 195.022 -649.734C195.683 -657.017 196.778 -664.233 198.539 -671.315C211.694 -680.996 225.27 -690.055 239.191 -698.537C254.754 -707.951 270.713 -716.654 286.982 -724.736M194.5 -621.558C209.074 -640.275 224.25 -658.504 240.054 -676.156C255.139 -692.897 270.769 -709.128 286.982 -724.736M194.5 -621.558C210.835 -630.595 227.563 -638.854 244.578 -646.492C263.848 -655.04 283.45 -662.745 303.297 -669.783C299.623 -680.174 296.134 -690.632 293.008 -701.201C290.734 -708.972 288.654 -716.81 286.982 -724.736M194.5 -621.558C209.074 -640.275 224.25 -658.504 240.056 -676.156C255.139 -692.897 270.769 -709.128 286.982 -724.736M119.073 -569.77C121.189 -578.629 123.813 -587.336 127.051 -595.824C129.816 -602.955 133.003 -609.911 136.649 -616.627C145.578 -626.077 154.905 -635.134 164.586 -643.797C175.501 -653.466 186.842 -662.631 198.541 -671.316M119.073 -569.77C131.307 -587.883 144.138 -605.536 157.57 -622.731C170.673 -639.422 184.327 -655.609 198.541 -671.316M119.073 -569.77C129.893 -579.023 141.191 -587.642 152.856 -595.758C166.33 -605.033 180.252 -613.586 194.501 -621.549C194.145 -630.956 194.225 -640.362 195.021 -649.747C195.683 -657.009 196.78 -664.228 198.541 -671.316M119.067 -569.765C116.578 -559.117 114.828 -548.3 113.638 -537.418C112.261 -524.284 111.697 -511.108 111.713 -497.889C100.2 -491.13 88.9909 -483.841 78.2435 -475.85M119.067 -569.765C106.699 -551.36 94.9608 -532.509 83.8617 -513.276C72.8022 -493.978 62.3939 -474.298 52.6578 -454.257M119.067 -569.765C109.728 -561.71 100.772 -553.209 92.2932 -544.219C84.9625 -536.377 78.0104 -528.195 71.4912 -519.63C67.4898 -509.875 64.0087 -499.929 61.0123 -489.813C57.5997 -478.124 54.8468 -466.265 52.6578 -454.257M78.2435 -475.85C69.3147 -469.155 60.7376 -462.015 52.6578 -454.257M78.2435 -475.85C69.3166 -469.148 60.7374 -461.99 52.6581 -454.269C50.1824 -440.367 48.4708 -426.339 47.3847 -412.271C46.1947 -395.975 45.8381 -379.638 46.1397 -363.322C55.4741 -386.319 65.5727 -408.962 76.3946 -431.272C87.4427 -453.873 99.2223 -476.079 111.715 -497.89M78.2435 -475.85C88.9921 -483.821 100.2 -491.126 111.715 -497.89M194.499 -621.546C195.008 -609.531 196.228 -597.582 197.88 -585.675C200.007 -570.748 202.809 -555.929 206.038 -541.219M194.499 -621.546C179.466 -602.111 165.099 -582.18 151.382 -561.753C137.464 -540.917 124.242 -519.627 111.714 -497.884M194.499 -621.546C180.245 -613.587 166.323 -605.023 152.851 -595.748C141.185 -587.638 129.887 -579.01 119.067 -569.756C116.579 -559.122 114.831 -548.315 113.64 -537.422C112.263 -524.286 111.697 -511.107 111.714 -497.884M194.499 -621.546C179.466 -602.111 165.096 -582.18 151.379 -561.753C137.464 -540.917 124.242 -519.627 111.714 -497.884M206.038 -541.219C188.463 -534.769 171.105 -527.716 154.077 -519.886C139.648 -513.177 125.481 -505.908 111.714 -497.884M206.038 -541.219C210.04 -523.211 214.678 -505.352 219.738 -487.621C225.824 -466.46 232.505 -445.49 239.606 -424.669M206.038 -541.219C226.428 -548.635 247.08 -555.262 267.909 -561.25C291.598 -568.006 315.488 -573.973 339.525 -579.279M303.292 -669.761C308.115 -656.182 313.26 -642.735 318.586 -629.374C325.311 -612.56 332.326 -595.876 339.524 -579.28C315.488 -573.966 291.596 -568.019 267.909 -561.262C247.077 -555.249 226.426 -548.645 206.034 -541.211M303.292 -669.761C286.077 -649.885 269.528 -629.418 253.604 -608.449C237.062 -586.539 221.213 -564.126 206.034 -541.211M303.292 -669.761C283.444 -662.742 263.842 -655.023 244.572 -646.474C227.554 -638.842 210.827 -630.577 194.494 -621.525C195.006 -609.52 196.229 -597.56 197.881 -585.664C200.007 -570.73 202.807 -555.927 206.034 -541.211M303.292 -669.761C286.077 -649.885 269.528 -629.418 253.602 -608.449C237.059 -586.561 221.213 -564.126 206.034 -541.211M445.308 -708.225C454.957 -693.063 464.5 -677.835 473.983 -662.54C485.545 -643.909 497.012 -625.188 508.414 -606.446C478.9 -603.197 449.465 -599.263 420.139 -594.577C393.143 -590.179 366.256 -585.139 339.526 -579.282M445.308 -708.225C427.057 -688.599 409.44 -668.375 392.382 -647.666C374.124 -625.387 356.526 -602.578 339.526 -579.282M445.308 -708.225C420.176 -703.142 395.201 -697.329 370.437 -690.61C347.832 -684.444 325.426 -677.526 303.293 -669.768C308.118 -656.197 313.262 -642.759 318.59 -629.388C325.315 -612.568 332.331 -595.881 339.526 -579.282M445.308 -708.225C427.055 -688.599 409.44 -668.375 392.379 -647.666C374.124 -625.387 356.524 -602.578 339.526 -579.282M613.011 -730.888C627.024 -714.073 640.66 -696.948 654.028 -679.6C669.648 -659.294 684.906 -638.676 699.879 -617.859C667.385 -617.414 634.9 -616.235 602.449 -614.323C571.048 -612.41 539.698 -609.808 508.414 -606.427M613.011 -730.888C595.438 -712.205 578.428 -692.989 561.87 -673.372C543.509 -651.51 525.72 -629.18 508.414 -606.427M613.011 -730.888C584.166 -728.686 555.392 -725.705 526.715 -721.858C499.451 -718.121 472.303 -713.606 445.306 -708.224C454.957 -693.056 464.503 -677.821 473.985 -662.541C485.548 -643.903 497.015 -625.176 508.414 -606.427M613.011 -730.888C595.438 -712.205 578.426 -692.989 561.868 -673.372C543.504 -651.51 525.718 -629.18 508.414 -606.427M791.982 -733.727C809.035 -715.409 825.552 -696.578 841.65 -677.369C859.699 -655.756 877.21 -633.698 894.274 -611.284M791.982 -733.727C776.966 -716.477 762.4 -698.848 748.128 -680.975C731.652 -660.23 715.604 -639.174 699.878 -617.85C732.607 -618.228 765.344 -617.894 798.062 -616.826C830.17 -615.691 862.247 -613.866 894.274 -611.284M791.982 -733.727C821.409 -732.436 850.797 -730.344 880.113 -727.384C908.324 -724.49 936.433 -720.773 964.43 -716.21C953.496 -700.607 942.768 -684.848 932.148 -669C919.358 -649.88 906.75 -630.626 894.274 -611.284M964.425 -716.202C982.678 -696.775 1000.31 -676.751 1017.41 -656.262C1035.88 -634.022 1053.72 -611.251 1070.97 -588.015M964.425 -716.202C953.492 -700.585 942.763 -684.836 932.154 -668.998C919.354 -649.86 906.747 -630.611 894.261 -611.273M964.425 -716.202C990.778 -711.838 1017.01 -706.699 1043.05 -700.696C1067.07 -695.07 1090.93 -688.735 1114.54 -681.514C1108.41 -667.514 1102.08 -653.603 1095.64 -639.759C1087.57 -622.437 1079.33 -605.204 1070.97 -588.015M1070.97 -588.015C1042.75 -593.264 1014.4 -597.717 985.957 -601.505C955.472 -605.514 924.897 -608.726 894.261 -611.273M894.261 -611.273C862.245 -613.859 830.168 -615.691 798.059 -616.811C765.34 -617.889 732.602 -618.234 699.875 -617.846C716.879 -594.141 733.527 -570.177 749.881 -546.02C767.91 -519.298 785.604 -492.339 802.981 -465.165C818.848 -491.24 834.847 -517.208 851.007 -543.089C865.279 -565.91 879.684 -588.646 894.261 -611.273ZM1114.54 -681.523C1132.19 -661.648 1149.16 -641.157 1165.53 -620.185C1182.67 -598.115 1199.11 -575.496 1214.9 -552.396M1114.54 -681.523C1108.41 -667.527 1102.08 -653.618 1095.64 -639.753C1087.57 -622.444 1079.33 -605.201 1070.97 -588.023C1096.67 -583.197 1122.24 -577.69 1147.64 -571.416C1170.24 -565.756 1192.69 -559.482 1214.9 -552.396M1114.54 -681.523C1135.91 -674.92 1157.08 -667.615 1177.93 -659.476C1196.49 -652.148 1214.8 -644.141 1232.73 -635.344C1231.15 -622.905 1228.93 -610.576 1226.35 -598.312C1223.04 -582.89 1219.15 -567.577 1214.9 -552.396M1232.73 -635.336C1248.44 -615.717 1263.47 -595.578 1277.86 -574.919C1292.55 -553.741 1306.53 -532.064 1319.82 -509.955M1232.73 -635.336C1231.15 -622.906 1228.93 -610.563 1226.35 -598.306C1223.04 -582.867 1219.15 -567.578 1214.9 -552.398C1234.26 -546.162 1253.41 -539.319 1272.27 -531.675C1288.4 -525.07 1304.29 -517.902 1319.82 -509.955M1232.73 -635.336C1248.44 -615.717 1263.47 -595.578 1277.87 -574.919C1292.55 -553.741 1306.53 -532.064 1319.82 -509.955M1232.73 -635.336C1248.48 -627.54 1263.92 -619.095 1278.94 -609.913C1292 -601.858 1304.7 -593.239 1316.94 -583.949C1318.76 -572.97 1319.81 -561.883 1320.32 -550.753C1320.88 -537.153 1320.62 -523.532 1319.82 -509.955M1316.94 -583.961C1330.05 -565.224 1342.52 -546.04 1354.34 -526.429C1366.18 -506.669 1377.33 -486.524 1387.82 -465.995M1316.94 -583.961C1318.76 -572.971 1319.81 -561.874 1320.32 -550.756C1320.88 -537.163 1320.63 -523.548 1319.82 -509.955C1332.9 -503.212 1345.69 -495.913 1358.05 -487.89C1368.36 -481.125 1378.33 -473.891 1387.82 -465.995M1316.94 -583.961C1327.52 -575.851 1337.71 -567.273 1347.44 -558.118C1355.82 -550.137 1363.82 -541.751 1371.36 -532.938C1375.09 -522.993 1378.22 -512.836 1380.84 -502.529C1383.84 -490.493 1386.12 -478.287 1387.82 -465.995M1416.72 -403.826C1425.39 -383.231 1433.38 -362.347 1440.62 -341.195C1439.43 -356.142 1437.61 -371.047 1435.08 -385.829C1432.8 -398.858 1429.97 -411.763 1426.53 -424.525C1421.53 -431.637 1416.06 -438.358 1410.21 -444.749C1403.2 -452.315 1395.69 -459.365 1387.81 -465.983M1416.72 -403.826C1407.79 -424.875 1398.13 -445.615 1387.81 -465.983M1416.72 -403.826C1425.39 -383.231 1433.38 -362.347 1440.63 -341.195C1433.96 -346.741 1426.85 -351.71 1419.51 -356.286C1410.13 -362.079 1400.39 -367.192 1390.44 -371.913C1391.46 -388.777 1391.82 -405.702 1391.32 -422.607C1390.84 -437.121 1389.73 -451.593 1387.81 -465.983M1390.44 -371.903C1380.26 -395.566 1369.31 -418.853 1357.62 -441.786C1345.74 -464.927 1333.15 -487.651 1319.82 -509.956M1390.44 -371.903C1391.46 -388.778 1391.82 -405.696 1391.32 -422.592C1390.85 -437.108 1389.73 -451.602 1387.81 -465.992C1378.32 -473.887 1368.34 -481.134 1358.05 -487.88C1345.68 -495.9 1332.89 -503.21 1319.82 -509.956M1390.44 -371.903C1377.92 -377.772 1365.12 -382.951 1352.17 -387.713C1336.2 -393.498 1320.01 -398.636 1303.7 -403.315C1307.95 -422.383 1311.65 -441.577 1314.55 -460.917C1316.95 -477.187 1318.78 -493.54 1319.82 -509.956M1303.7 -403.313C1290.32 -429.132 1276.2 -454.55 1261.36 -479.544C1246.57 -504.285 1231.09 -528.582 1214.9 -552.392M1303.7 -403.313C1307.95 -422.387 1311.64 -441.587 1314.55 -460.936C1316.95 -477.197 1318.78 -493.543 1319.82 -509.952C1304.29 -517.903 1288.4 -525.071 1272.27 -531.669C1253.41 -539.324 1234.25 -546.154 1214.9 -552.392M1303.7 -403.313C1284.09 -408.874 1264.3 -413.802 1244.42 -418.263C1221.11 -423.444 1197.69 -427.969 1174.18 -432.051C1182.42 -453.535 1190.3 -475.188 1197.68 -497.011C1203.84 -515.323 1209.64 -533.783 1214.9 -552.392M1174.18 -432.051C1158.01 -459.355 1141.19 -486.274 1123.71 -512.723C1106.76 -538.275 1089.19 -563.4 1070.98 -588.034M1174.18 -432.051C1182.43 -453.544 1190.3 -475.186 1197.68 -497.02C1203.85 -515.33 1209.64 -533.789 1214.9 -552.398C1192.69 -559.491 1170.24 -565.772 1147.64 -571.412C1122.24 -577.715 1096.67 -583.205 1070.98 -588.034M1174.18 -432.051C1147.35 -436.644 1120.43 -440.639 1093.45 -444.143C1063.49 -447.967 1033.45 -451.215 1003.36 -453.971C1015.77 -477.921 1028.08 -501.934 1040.23 -526.034C1050.6 -546.629 1060.86 -567.289 1070.98 -588.034M1003.36 -453.983C985.636 -481.771 967.415 -509.236 948.647 -536.335M1003.36 -453.983C1015.78 -477.942 1028.08 -501.945 1040.23 -526.033C1050.61 -546.637 1060.87 -567.305 1070.98 -588.038C1042.76 -593.286 1014.41 -597.738 985.961 -601.523C955.478 -605.523 924.902 -608.75 894.266 -611.288M1003.36 -453.983C985.626 -481.771 967.405 -509.236 948.647 -536.335M1003.36 -453.983C970.856 -456.908 938.312 -459.274 905.727 -461.124C871.506 -463.016 837.256 -464.35 802.985 -465.167C818.852 -491.255 834.852 -517.236 851.022 -543.109C865.295 -565.929 879.69 -588.662 894.266 -611.288M948.647 -536.335C931.013 -561.692 912.914 -586.705 894.266 -611.288M593.89 -463.349C578.843 -488.883 563.725 -514.395 548.523 -539.843C535.228 -562.08 521.865 -584.295 508.411 -606.425C539.694 -609.808 571.046 -612.415 602.447 -614.311C634.896 -616.229 667.381 -617.392 699.875 -617.845M593.89 -463.349C611.577 -490.779 629.62 -517.994 648.075 -544.907C664.976 -569.492 682.223 -593.819 699.875 -617.845M593.89 -463.349C628.584 -464.75 663.29 -465.59 698.018 -465.914C733.009 -466.215 767.999 -465.957 802.99 -465.16C785.602 -492.331 767.908 -519.287 749.87 -546.005C733.516 -570.182 716.879 -594.143 699.875 -617.845M593.89 -463.349C611.577 -490.779 629.624 -517.994 648.079 -544.907C664.976 -569.492 682.223 -593.819 699.875 -617.845M399.845 -448.9C388.542 -472.182 377.422 -495.571 366.55 -519.089C357.331 -539.041 348.296 -559.101 339.525 -579.29C366.256 -585.132 393.141 -590.179 420.137 -594.561C449.463 -599.264 478.899 -603.195 508.414 -606.438M399.845 -448.9C417.313 -476.671 435.324 -504.076 453.915 -531.095C471.547 -556.61 489.693 -581.739 508.414 -606.438M399.845 -448.9C431.051 -452.337 462.314 -455.215 493.615 -457.577C527.01 -460.047 560.439 -461.959 593.893 -463.355C578.845 -488.891 563.725 -514.407 548.522 -539.857C535.226 -562.087 521.866 -584.294 508.414 -606.438M399.845 -448.9C417.315 -476.671 435.326 -504.076 453.919 -531.095C471.549 -556.61 489.693 -581.739 508.414 -606.438M239.606 -424.669C255.1 -451.67 271.273 -478.244 288.128 -504.372C304.609 -529.796 321.729 -554.793 339.525 -579.279M239.606 -424.669C264.535 -429.613 289.576 -433.918 314.689 -437.754C343.004 -442.037 371.395 -445.703 399.843 -448.878C388.54 -472.192 377.419 -495.57 366.544 -519.076C357.33 -539.044 348.293 -559.098 339.525 -579.279M239.606 -424.669C255.102 -451.67 271.273 -478.244 288.13 -504.372C304.611 -529.796 321.731 -554.793 339.525 -579.279M122.029 -394.817C118.754 -413.281 116.076 -431.829 114.225 -450.483C112.714 -466.249 111.798 -482.057 111.713 -497.886C125.482 -505.916 139.649 -513.167 154.076 -519.87C171.105 -527.71 188.463 -534.771 206.037 -541.221M122.029 -394.817C134.543 -420.11 147.811 -445.003 161.809 -469.452C175.837 -493.839 190.578 -517.762 206.037 -541.221M122.029 -394.817C139.632 -400.551 157.431 -405.588 175.344 -410.204C196.637 -415.6 218.074 -420.384 239.605 -424.684C232.504 -445.508 225.821 -466.459 219.736 -487.621C214.678 -505.347 210.039 -523.2 206.037 -541.221M122.029 -394.817C134.543 -420.11 147.813 -445.003 161.811 -469.452C175.837 -493.839 190.578 -517.762 206.037 -541.221M111.715 -497.89C111.797 -482.052 112.714 -466.256 114.223 -450.481C116.076 -431.834 118.755 -413.27 122.03 -394.831C107.587 -390.086 93.2867 -384.925 79.2392 -379.056C67.9812 -374.331 56.8985 -369.149 46.1418 -363.322C55.4742 -386.319 65.5727 -408.962 76.3967 -431.272C87.4427 -453.873 99.2223 -476.079 111.715 -497.89ZM4.25436 -333.247C5.85949 -347.73 8.05195 -362.132 10.9042 -376.41C13.4788 -389.085 16.5664 -401.638 20.203 -414.026C24.3044 -420.826 28.8422 -427.338 33.7501 -433.542C39.5994 -440.877 45.9415 -447.759 52.6597 -454.271M4.25436 -333.247C10.8076 -353.729 18.0689 -373.924 26.0041 -393.872C34.2027 -414.313 43.0973 -434.446 52.6597 -454.271M4.25436 -333.247C9.63697 -338.63 15.4802 -343.478 21.595 -347.956C29.4356 -353.647 37.6785 -358.68 46.1426 -363.323C45.8389 -379.656 46.1949 -395.988 47.3857 -412.279C48.4718 -426.352 50.1836 -440.363 52.6597 -454.271M4.25436 -333.247C10.8076 -353.729 18.0689 -373.924 26.0061 -393.872C34.2027 -414.313 43.0973 -434.446 52.6597 -454.271M1464.06 -105.063C1461.64 -125.921 1458.39 -146.663 1454.43 -167.271C1450.09 -189.452 1444.93 -211.441 1439.04 -233.239M1464.06 -105.063C1467.06 -124.769 1469.35 -144.571 1470.86 -164.45C1472.17 -182.659 1472.82 -200.907 1472.73 -219.174C1468.46 -221.841 1463.92 -224.048 1459.3 -226.005C1452.68 -228.806 1445.89 -231.128 1439.04 -233.239M1464.06 -105.063C1461.64 -125.921 1458.39 -146.663 1454.42 -167.27C1450.09 -189.452 1444.93 -211.441 1439.04 -233.239M1464.06 -105.063C1457.39 -104.469 1450.7 -103.969 1444.01 -103.528C1434.53 -102.933 1425.05 -102.415 1415.56 -101.955C1421.26 -124.52 1426.23 -147.277 1430.33 -170.206C1434.01 -191.102 1436.95 -212.113 1439.04 -233.239M1415.56 -101.956C1410.23 -125.921 1404.05 -149.694 1397.14 -173.235C1389.62 -198.531 1381.29 -223.557 1372.21 -248.313M1415.56 -101.956C1421.26 -124.514 1426.23 -147.284 1430.33 -170.208C1434.01 -191.108 1436.95 -212.124 1439.04 -233.236C1429.6 -236.089 1420.05 -238.519 1410.45 -240.717C1397.77 -243.59 1385.01 -246.057 1372.21 -248.313M1415.56 -101.956C1402.82 -101.339 1390.08 -100.818 1377.33 -100.336C1360.97 -99.7384 1344.6 -99.2178 1328.24 -98.7358C1337.42 -124.34 1345.91 -150.176 1353.6 -176.282C1360.54 -200.093 1366.79 -224.097 1372.21 -248.313M1328.24 -98.7274C1319.17 -125.866 1309.32 -152.675 1298.79 -179.232M1328.24 -98.7274C1337.41 -124.336 1345.91 -150.176 1353.6 -176.269C1360.54 -200.095 1366.79 -224.095 1372.2 -248.309C1355.93 -251.137 1339.6 -253.597 1323.23 -255.825C1303.13 -258.537 1282.99 -260.919 1262.82 -263.05M1328.24 -98.7274C1308.02 -98.1462 1287.79 -97.6619 1267.55 -97.197C1243.38 -96.6546 1219.23 -96.1898 1195.06 -95.783C1208.04 -124.277 1220.46 -153.004 1232.24 -182.041C1243.03 -208.812 1253.27 -235.795 1262.82 -263.05M1298.79 -179.232C1287.53 -207.494 1275.51 -235.427 1262.82 -263.05M1298.79 -179.232C1287.52 -207.494 1275.51 -235.427 1262.82 -263.05M1195.05 -95.7757C1181.96 -125.647 1168.26 -155.247 1154.02 -184.574C1139.09 -215.204 1123.59 -245.543 1107.55 -275.59M1195.05 -95.7757C1208.04 -124.267 1220.46 -153.01 1232.23 -182.046C1243.03 -208.806 1253.27 -235.799 1262.82 -263.046C1238.84 -265.574 1214.82 -267.752 1190.78 -269.716C1163.06 -271.953 1135.31 -273.898 1107.55 -275.59M1195.05 -95.7757C1181.96 -125.647 1168.24 -155.247 1154.01 -184.574C1139.09 -215.204 1123.59 -245.543 1107.55 -275.59M1195.05 -95.7757C1167.1 -95.3089 1139.14 -94.881 1111.19 -94.5309C1079.83 -94.1225 1048.47 -93.792 1017.12 -93.5003C1033.44 -124.364 1049.4 -155.441 1064.94 -186.733C1079.52 -216.157 1093.76 -245.776 1107.55 -275.59M1017.12 -93.5097C1000.62 -125.331 983.755 -156.958 966.57 -188.389C949.027 -220.406 931.153 -252.227 912.952 -283.854M1017.12 -93.5097C1033.44 -124.376 1049.39 -155.437 1064.94 -186.732C1079.52 -216.155 1093.75 -245.773 1107.55 -275.586C1076.49 -277.458 1045.39 -279.038 1014.3 -280.383C980.527 -281.806 946.735 -282.957 912.952 -283.854M1017.12 -93.5097C1000.61 -125.331 983.755 -156.958 966.56 -188.389C949.027 -220.406 931.153 -252.227 912.952 -283.854M1017.12 -93.5097C983.015 -93.1978 948.917 -92.9443 914.809 -92.7689C878.842 -92.5739 842.868 -92.4179 806.901 -92.3399C825.123 -124.668 843.232 -157.036 861.21 -189.501C878.579 -220.874 895.825 -252.325 912.952 -283.854M587.102 -92.5375C569.209 -124.558 551.506 -156.715 534.004 -188.97C517.24 -219.918 500.663 -250.962 484.297 -282.124C519.022 -283.334 553.757 -284.271 588.497 -284.934C624.609 -285.617 660.723 -286.047 696.841 -286.203M587.102 -92.5375C605.114 -125.046 623.279 -157.457 641.591 -189.79C659.861 -222.025 678.275 -254.163 696.841 -286.203M587.102 -92.5375C623.581 -92.3814 660.054 -92.3035 696.537 -92.2644C733.325 -92.2254 770.114 -92.2645 806.9 -92.3425C788.598 -124.929 770.234 -157.477 751.781 -189.965C733.539 -222.103 715.225 -254.182 696.841 -286.203M587.102 -92.5375C605.116 -125.046 623.281 -157.457 641.595 -189.79C659.861 -222.025 678.275 -254.163 696.841 -286.203M383.809 -94.0327C368.304 -124.336 353.221 -154.854 338.617 -185.606C325.009 -214.351 311.821 -243.31 299.134 -272.503C328.438 -274.588 357.76 -276.361 387.095 -277.901M383.809 -94.0327C399.508 -125.428 415.631 -156.589 432.142 -187.555C449.125 -219.301 466.515 -250.832 484.3 -282.13M383.809 -94.0327C416.505 -93.682 449.199 -93.3899 481.896 -93.1366C516.965 -92.8832 552.035 -92.6881 587.105 -92.5322C569.209 -124.57 551.507 -156.706 534.002 -188.978C517.238 -219.925 500.665 -250.969 484.3 -282.13M383.809 -94.0327C399.508 -125.428 415.631 -156.589 432.145 -187.555C449.127 -219.301 466.517 -250.832 484.3 -282.13M387.095 -277.901C419.486 -279.596 451.888 -280.98 484.3 -282.13M387.095 -277.901C419.487 -279.583 451.887 -280.978 484.3 -282.127C469.092 -311.109 454.07 -340.214 439.268 -369.442C425.927 -395.819 412.768 -422.278 399.843 -448.88M387.095 -277.901C357.759 -276.363 328.437 -274.579 299.134 -272.487M217.387 -96.5304C205.437 -124.275 194.09 -152.272 183.447 -180.541C173.734 -206.497 164.62 -232.707 156.243 -259.149C178.107 -261.792 200.006 -264.084 221.929 -266.144C247.64 -268.553 273.38 -270.651 299.136 -272.497C283.939 -243.043 269.322 -213.297 255.333 -183.241C242.082 -154.622 229.403 -125.712 217.387 -96.5304ZM217.387 -96.5304C243.299 -96.0252 269.214 -95.5785 295.13 -95.1899C324.689 -94.743 354.25 -94.3737 383.811 -94.0435C368.304 -124.333 353.221 -154.836 338.614 -185.592C325.007 -214.347 311.818 -243.315 299.134 -272.497C283.939 -243.043 269.324 -213.297 255.337 -183.241C242.082 -154.603 229.405 -125.712 217.387 -96.5304ZM97.0624 -99.5924C88.8907 -124.376 81.4255 -149.372 74.7995 -174.619C68.8327 -197.604 63.5686 -220.781 59.1664 -244.152C73.4375 -247.016 87.7769 -249.492 102.152 -251.736C120.14 -254.522 138.179 -256.941 156.244 -259.146C144.553 -232.293 133.557 -205.11 123.345 -177.638C113.847 -151.887 105.049 -125.885 97.0624 -99.5924ZM97.0624 -99.5924C115.152 -99.012 133.246 -98.4898 151.342 -98.0254C173.355 -97.4644 195.369 -96.9806 217.388 -96.5356C205.435 -124.26 194.087 -152.255 183.443 -180.54C173.732 -206.503 164.618 -232.699 156.242 -259.146C144.553 -232.293 133.559 -205.11 123.347 -177.638C113.849 -151.887 105.049 -125.885 97.0624 -99.5924ZM21.3072 -102.825C16.4357 -124.602 12.2958 -146.514 9.01357 -168.58C6.08203 -188.721 3.86878 -208.939 2.49822 -229.253C10.3351 -232.083 18.3191 -234.451 26.3577 -236.608C37.2128 -239.477 48.1679 -241.922 59.1663 -244.156M21.3072 -102.825C25.7375 -125.931 31.0293 -148.863 37.0583 -171.584C43.6189 -196.019 51.0221 -220.222 59.1663 -244.156M21.3072 -102.825C32.2113 -102.209 43.1212 -101.689 54.0329 -101.227C68.3738 -100.61 82.7185 -100.091 97.0633 -99.6092C88.8908 -124.371 81.4253 -149.364 74.8006 -174.626C68.8319 -197.617 63.5683 -220.8 59.1663 -244.156M21.3072 -102.825C25.7393 -125.931 31.0312 -148.863 37.0602 -171.584C43.6189 -196.019 51.0221 -220.222 59.1663 -244.156M-18.4459 -105.86C-20.8588 -124.831 -22.6 -143.861 -23.5888 -162.967C-24.4406 -180.501 -24.662 -198.055 -24.1798 -215.608C-20.9714 -218.176 -17.459 -220.303 -13.8397 -222.2C-8.56174 -224.941 -3.06992 -227.202 2.49696 -229.233M-18.4459 -105.86C-16.6222 -125.905 -14.0104 -145.854 -10.7026 -165.688M-18.4459 -105.86C-13.0986 -105.266 -7.73803 -104.806 -2.37378 -104.384C5.51404 -103.771 13.4075 -103.273 21.3047 -102.813C16.4339 -124.582 12.2949 -146.505 9.00953 -168.582C6.08068 -188.703 3.86663 -208.939 2.49696 -229.233M2.49696 -229.233C-2.64776 -208.211 -7.07763 -187.036 -10.7026 -165.688M2.49696 -229.233C-2.64776 -208.211 -7.07575 -187.036 -10.7026 -165.688M-18.4469 -105.848C-15.7779 -85.3984 -12.3304 -65.0593 -8.18543 -44.8675M-18.4469 -105.848C-20.0652 -87.4231 -21.0186 -68.9431 -21.2258 -50.4447M-18.4469 -105.848C-13.0981 -105.241 -7.73682 -104.78 -2.37181 -104.357C5.51621 -103.75 13.4097 -103.253 21.3049 -102.793C17.3167 -81.6436 14.0512 -60.3657 11.6471 -38.9591C9.54043 -19.6323 8.14029 -0.250458 7.58162 19.1867M-8.18543 -44.8675C-3.69447 -23.3136 1.58586 -1.96225 7.58162 19.1867M-8.18543 -44.8675C-3.69267 -23.3136 1.58586 -1.96225 7.58162 19.1867M7.58162 19.1867C1.83996 16.2785 -3.75572 13.0758 -9.02342 9.35775C-12.8458 6.59679 -16.4699 3.5781 -19.6976 0.117695C-20.8708 -16.7057 -21.3592 -33.566 -21.2258 -50.4447M-21.2258 -50.4447C-21.0184 -68.9598 -20.064 -87.4391 -18.446 -105.862C-21.7956 -106.231 -25.1453 -106.673 -28.4678 -107.262C-30.3293 -107.594 -32.1944 -107.962 -34 -108.552C-32.9592 -90.8657 -31.2907 -73.2165 -29.0324 -55.6409C-26.5738 -36.9416 -23.4479 -18.3529 -19.6978 0.106972C-20.8721 -16.7132 -21.3575 -33.5877 -21.2258 -50.4447ZM21.3063 -102.806C26.6479 -79.2695 32.8356 -55.9538 39.7668 -32.8588C47.2166 -8.2744 55.4963 16.0158 64.5213 40.0118M21.3063 -102.806C17.3168 -81.6599 14.0528 -60.3669 11.6494 -38.9636C9.54117 -19.6381 8.14053 -0.257366 7.58242 19.1785C15.3994 23.0767 23.4577 26.4232 31.6276 29.4572C42.4475 33.4473 53.4403 36.8859 64.5213 40.0118M21.3063 -102.806C26.6479 -79.2695 32.8373 -55.9538 39.7686 -32.8588C47.2183 -8.29278 55.4963 15.9974 64.5213 40.0118M21.3063 -102.806C32.2109 -102.181 43.1208 -101.666 54.0344 -101.206C68.374 -100.581 82.7172 -100.066 97.0639 -99.5879C89.805 -75.4816 83.241 -51.173 77.5196 -26.6438C72.4409 -4.57854 68.0482 17.6339 64.5213 40.0118M97.0619 -99.578C105.933 -72.9262 115.614 -46.5498 126.005 -20.4858C137.031 7.01104 148.836 34.1405 161.347 60.9577M97.0619 -99.578C89.8054 -75.4793 83.2413 -51.1786 77.5207 -26.639C72.4402 -4.57913 68.0468 17.6461 64.5201 40.0183C78.7238 44.0041 93.0587 47.4572 107.458 50.5981C125.342 54.4738 143.318 57.8719 161.347 60.9577M97.0619 -99.578C105.933 -72.9262 115.616 -46.5498 126.007 -20.4858C137.033 7.01104 148.836 34.1405 161.347 60.9577M97.0619 -99.578C115.154 -98.9902 133.247 -98.4759 151.341 -97.9984C173.355 -97.4473 195.369 -96.9513 217.387 -96.5105C206.298 -69.4362 195.783 -42.123 185.96 -14.5527C177.131 10.3909 168.875 35.5548 161.347 60.9577M303.301 79.5409C287.458 50.3474 272.216 20.8052 257.615 -9.06725C243.58 -37.9121 230.148 -67.0689 217.389 -96.5193C206.3 -69.4543 195.785 -42.1323 185.965 -14.5535C177.135 10.4014 168.878 35.5396 161.349 60.9348C183.06 64.6047 204.838 67.8159 226.659 70.715C252.161 74.0546 277.715 76.9537 303.301 79.5409ZM303.301 79.5409C287.458 50.3474 272.217 20.8052 257.617 -9.06725C243.582 -37.9121 230.149 -67.0689 217.387 -96.5193C243.3 -96.0056 269.215 -95.5652 295.133 -95.1798C324.691 -94.7211 354.251 -94.3359 383.812 -94.0239C368.99 -64.2983 354.552 -34.3707 340.56 -4.24133C327.731 23.5026 315.281 51.4117 303.301 79.5409ZM383.811 -94.018C399.982 -62.5205 416.608 -31.2612 433.661 -0.258732C450.938 31.0738 468.652 62.1494 486.796 92.9503M383.811 -94.018C368.991 -64.2988 354.553 -34.3781 340.565 -4.21901C327.732 23.5017 315.281 51.4059 303.301 79.5483C332.338 82.445 361.412 84.92 390.514 87.0834C422.584 89.4118 454.683 91.3552 486.796 92.9503M383.811 -94.018C399.982 -62.5205 416.61 -31.2796 433.665 -0.258732C450.942 31.0738 468.654 62.1494 486.796 92.9503M383.811 -94.018C416.506 -93.6513 449.201 -93.3579 481.896 -93.1195C516.968 -92.8629 552.036 -92.6612 587.105 -92.5146C569.595 -60.8887 552.228 -29.1712 535.02 2.63798C518.797 32.6688 502.715 62.7728 486.796 92.9503M587.104 -92.514C605.224 -60.1161 623.538 -27.8282 642.047 4.33146C660.228 35.8864 678.591 67.313 697.159 98.6298M587.104 -92.514C569.595 -60.8858 552.23 -29.1476 535.021 2.64558C518.798 32.6613 502.715 62.7687 486.798 92.9676C521.166 94.6351 555.551 95.9178 589.945 96.8707C625.677 97.8236 661.416 98.4099 697.159 98.6298M587.104 -92.514C605.225 -60.1161 623.54 -27.8465 642.052 4.33146C660.229 35.8864 678.591 67.313 697.159 98.6298M587.104 -92.514C623.583 -92.3674 660.056 -92.2758 696.54 -92.2391C733.327 -92.2208 770.116 -92.2391 806.903 -92.3307C788.612 -59.9145 770.186 -27.5717 751.651 4.69792C733.613 36.0879 715.45 67.3863 697.159 98.6298M1017.12 -93.4771C1032.82 -63.1218 1048.2 -32.62 1063.21 -1.91637C1077.07 26.4959 1090.61 55.0915 1103.77 83.8704C1073 86.4734 1042.19 88.673 1011.36 90.5428C977.926 92.5224 944.477 94.1171 911.01 95.3636M1017.12 -93.4771C1000.23 -61.6004 982.962 -29.9438 965.309 1.49298C947.584 33.0031 929.484 64.3117 911.01 95.3636M1017.12 -93.4771C983.012 -93.1655 948.914 -92.9273 914.805 -92.7256C878.841 -92.5423 842.864 -92.3958 806.9 -92.3225C824.836 -60.3358 842.702 -28.3307 860.497 3.72935C877.409 34.2313 894.25 64.7883 911.01 95.3636M1017.12 -93.4771C1000.23 -61.6004 982.951 -29.9437 965.309 1.47478C947.584 33.0032 929.484 64.3117 911.01 95.3636M1195.06 -95.7587C1207.22 -67.9118 1218.84 -39.8263 1229.83 -11.484C1239.76 14.2533 1249.17 40.1923 1257.9 66.3699C1234.11 69.8737 1210.24 72.9555 1186.35 75.6888C1158.86 78.7891 1131.34 81.4857 1103.78 83.8522M1195.06 -95.7587C1181.27 -65.6554 1166.87 -35.8456 1151.91 -6.32926C1136.44 24.0492 1120.39 54.1157 1103.78 83.8522M1195.06 -95.7587C1167.1 -95.2817 1139.14 -94.8599 1111.19 -94.5113C1079.83 -94.1078 1048.47 -93.7592 1017.13 -93.484C1032.83 -63.1422 1048.21 -32.6353 1063.22 -1.92666C1077.08 26.489 1090.62 55.0696 1103.78 83.8522M1195.06 -95.7587C1181.27 -65.6554 1166.87 -35.8456 1151.9 -6.32926C1136.44 24.0492 1120.39 54.1157 1103.78 83.8522M1328.24 -98.7161C1336.51 -73.798 1344.12 -48.6412 1350.9 -23.264C1356.95 -0.420883 1362.33 22.6058 1366.87 45.8162C1350.68 49.7458 1334.37 53.1796 1318.02 56.3013C1298.05 60.084 1278 63.3892 1257.9 66.3823M1328.24 -98.7161C1318.31 -71.2456 1307.6 -44.0689 1296.2 -17.2043C1284.17 11.0007 1271.37 38.8567 1257.9 66.3823M1328.24 -98.7161C1308.02 -98.1285 1287.79 -97.6327 1267.56 -97.1736C1243.39 -96.6411 1219.23 -96.1822 1195.06 -95.7599C1207.22 -67.9221 1218.84 -39.8271 1229.84 -11.4936C1239.76 14.2508 1249.17 40.1972 1257.9 66.3823M1415.56 -101.927C1420.36 -79.997 1424.44 -57.9015 1427.65 -35.6405C1430.47 -15.6037 1432.58 4.54333 1433.84 24.7639C1424.43 28.7161 1414.82 32.1169 1405.11 35.2051C1392.49 39.1941 1379.72 42.6683 1366.85 45.8117C1376.81 21.0323 1386.02 -4.05951 1394.41 -29.4639C1402.23 -53.3793 1409.32 -77.5338 1415.56 -101.927ZM1415.56 -101.927C1402.82 -101.321 1390.08 -100.787 1377.33 -100.31C1360.97 -99.7029 1344.6 -99.1882 1328.24 -98.7103C1336.51 -73.7838 1344.12 -48.6551 1350.9 -23.2691C1356.95 -0.419807 1362.33 22.6132 1366.86 45.8117C1376.81 21.0323 1386.02 -4.05951 1394.41 -29.4639C1402.23 -53.3793 1409.32 -77.5338 1415.56 -101.927ZM1464.06 -105.037C1466.22 -85.8992 1467.7 -66.6882 1468.39 -47.4403C1468.96 -29.9222 1468.87 -12.404 1468.06 5.09579C1463.77 8.72087 1459.12 11.8491 1454.33 14.6645C1447.72 18.5104 1440.84 21.7859 1433.83 24.767M1464.06 -105.037C1460.76 -83.7646 1456.66 -62.6397 1451.83 -41.6621C1446.62 -19.3044 1440.59 2.85087 1433.83 24.767M1464.06 -105.037C1457.38 -104.429 1450.69 -103.951 1444.01 -103.509C1434.52 -102.884 1425.04 -102.387 1415.55 -101.908C1420.35 -79.974 1424.44 -57.8922 1427.64 -35.6265C1430.47 -15.5874 1432.58 4.5438 1433.83 24.767M4.25185 -333.235C2.50699 -316.938 1.51049 -300.583 1.16152 -284.207C0.837753 -265.871 1.32242 -247.535 2.49729 -229.238C-3.07076 -227.198 -8.56127 -224.941 -13.8385 -222.209C-17.4581 -220.308 -20.9711 -218.169 -24.1797 -215.615M4.25185 -333.235C-1.99864 -313.513 -7.58026 -293.593 -12.4504 -273.494M4.25185 -333.235C0.0234685 -328.958 -3.88115 -324.364 -7.33016 -319.414C-10.1026 -315.354 -12.5512 -311.097 -14.6043 -306.622C-17.2468 -292.325 -19.3426 -277.95 -20.9285 -263.514C-22.6229 -247.594 -23.6912 -231.614 -24.1797 -215.615M4.25185 -333.235C-1.99864 -313.513 -7.58026 -293.612 -12.4504 -273.494M-24.1797 -215.615C-20.9537 -235.04 -17.0277 -254.346 -12.4504 -273.494M46.1397 -363.317C46.5565 -344.57 47.8402 -325.863 49.8107 -307.236C52.1139 -286.091 55.2917 -265.046 59.1662 -244.14C48.169 -241.922 37.2128 -239.464 26.3564 -236.606C18.3179 -234.447 10.3361 -232.069 2.49711 -229.231M46.1397 -363.317C37.1541 -341.012 28.8983 -318.408 21.4312 -295.524C14.3671 -273.66 8.03291 -251.555 2.49711 -229.231M46.1397 -363.317C37.6746 -358.68 29.4326 -353.623 21.5897 -347.947C15.4747 -343.47 9.63365 -338.614 4.25244 -333.238C2.50892 -316.949 1.5129 -300.601 1.16459 -284.212C0.837806 -265.865 1.32498 -247.538 2.49711 -229.231M122.027 -394.818C125.903 -373.347 130.582 -352.038 135.857 -330.89C141.938 -306.756 148.792 -282.864 156.242 -259.133C138.178 -256.933 120.142 -254.512 102.153 -251.727C87.7774 -249.487 73.4376 -247.005 59.1649 -244.14M122.027 -394.818C109.797 -369.937 98.3041 -344.713 87.6016 -319.126C77.3535 -294.426 67.8502 -269.444 59.1649 -244.14M122.027 -394.818C107.584 -390.076 93.2858 -384.91 79.2364 -379.058C67.9787 -374.316 56.8968 -369.15 46.137 -363.318C46.5558 -344.572 47.842 -325.866 49.8099 -307.24C52.1136 -286.092 55.2925 -265.045 59.1649 -244.14M122.027 -394.818C109.797 -369.937 98.3041 -344.713 87.5996 -319.126C77.3535 -294.447 67.8502 -269.444 59.1649 -244.14M239.603 -424.663C247.9 -400.473 256.76 -376.486 266.037 -352.662C276.575 -325.723 287.646 -299.007 299.133 -272.475C273.377 -270.622 247.639 -268.545 221.927 -266.142C200.005 -264.065 178.105 -261.764 156.24 -259.138C168.519 -287.177 181.548 -314.869 195.27 -342.196C209.343 -370.072 224.126 -397.561 239.603 -424.663ZM239.603 -424.663C218.071 -420.367 196.632 -415.581 175.341 -410.165C157.428 -405.584 139.631 -400.534 122.025 -394.812C125.903 -373.35 130.58 -352.031 135.857 -330.874C141.938 -306.765 148.79 -282.86 156.242 -259.138C168.519 -287.177 181.546 -314.869 195.268 -342.196C209.341 -370.072 224.126 -397.561 239.603 -424.663ZM399.843 -448.88C381.9 -420.247 364.539 -391.245 347.748 -361.894C330.958 -332.42 314.745 -302.617 299.134 -272.487M399.843 -448.88C371.393 -445.701 343.003 -442.03 314.689 -437.743C289.574 -433.907 264.534 -429.6 239.604 -424.678C247.904 -400.475 256.764 -376.498 266.04 -352.664C276.581 -325.733 287.649 -299.028 299.134 -272.487M399.843 -448.88C381.9 -420.247 364.537 -391.245 347.744 -361.894C330.956 -332.42 314.745 -302.617 299.134 -272.487M593.893 -463.33C610.581 -434.985 627.184 -406.578 643.718 -378.151C661.507 -347.54 679.211 -316.888 696.843 -286.194C660.724 -286.029 624.61 -285.618 588.498 -284.938C553.757 -284.258 519.024 -283.331 484.298 -282.116C502.06 -313.303 520.212 -344.244 538.763 -374.958C556.756 -404.662 575.122 -434.12 593.893 -463.33ZM593.893 -463.33C560.439 -461.929 527.009 -460.034 493.614 -457.541C462.312 -455.193 431.048 -452.33 399.843 -448.869C412.767 -422.275 425.929 -395.804 439.271 -369.437C454.071 -340.227 469.092 -311.12 484.3 -282.116C502.06 -313.303 520.21 -344.244 538.76 -374.958C556.754 -404.662 575.122 -434.12 593.893 -463.33ZM802.995 -465.155C821.613 -435.991 839.896 -406.6 857.872 -377.003C876.561 -346.169 894.914 -315.109 912.953 -283.842M802.995 -465.155C785.556 -436.485 768.298 -407.713 751.164 -378.837C732.901 -348.065 714.802 -317.17 696.844 -286.192C733.256 -286.336 769.678 -286.213 806.101 -285.842C841.722 -285.429 877.344 -284.77 912.953 -283.842M802.995 -465.155C837.257 -464.331 871.506 -462.991 905.727 -461.095C938.311 -459.24 970.857 -456.89 1003.36 -453.963C989.271 -426.819 975.038 -399.736 960.694 -372.736C944.91 -343.036 928.992 -313.398 912.953 -283.842M1003.36 -453.95C1021.72 -425.048 1039.54 -395.817 1056.85 -366.236C1074.29 -336.327 1091.19 -306.11 1107.55 -275.564M1003.36 -453.95C989.266 -426.794 975.045 -399.72 960.701 -372.707C944.904 -343.024 928.987 -313.402 912.95 -283.842C946.732 -282.938 980.525 -281.788 1014.3 -280.371C1045.39 -279.015 1076.48 -277.454 1107.55 -275.564M1003.36 -453.95C1033.44 -451.198 1063.48 -447.952 1093.45 -444.111C1120.43 -440.598 1147.35 -436.613 1174.18 -432.032C1164.6 -407.135 1154.53 -382.423 1144.11 -357.896C1132.35 -330.247 1120.12 -302.823 1107.55 -275.564M1174.18 -432.031C1190.44 -404.44 1206.05 -376.441 1220.97 -348.054M1174.18 -432.031C1164.6 -407.134 1154.54 -382.441 1144.11 -357.891C1132.35 -330.259 1120.13 -302.831 1107.55 -275.587C1135.31 -273.873 1163.06 -271.955 1190.78 -269.71C1214.82 -267.751 1238.84 -265.547 1262.82 -263.037M1174.18 -432.031C1197.69 -427.95 1221.12 -423.419 1244.42 -418.256C1264.31 -413.787 1284.09 -408.869 1303.7 -403.297C1298.69 -381.074 1292.92 -359.033 1286.61 -337.157C1279.34 -312.239 1271.36 -287.546 1262.82 -263.037M1220.97 -348.054C1235.6 -320.076 1249.58 -291.73 1262.82 -263.037M1220.97 -348.054C1235.61 -320.076 1249.58 -291.73 1262.82 -263.037M1303.7 -403.302C1316.85 -377.77 1329.26 -351.874 1340.9 -325.593M1303.7 -403.302C1298.69 -381.068 1292.93 -359.036 1286.61 -337.145C1279.34 -312.221 1271.36 -287.538 1262.82 -263.038C1282.99 -260.894 1303.13 -258.527 1323.23 -255.816C1339.6 -253.59 1355.93 -251.122 1372.2 -248.31M1303.7 -403.302C1316.85 -377.77 1329.27 -351.874 1340.9 -325.593M1303.7 -403.302C1320.02 -398.628 1336.21 -393.49 1352.17 -387.703C1365.14 -382.949 1377.93 -377.77 1390.45 -371.903C1389.21 -352.42 1387.09 -333.039 1384.31 -313.718C1381.07 -291.767 1376.98 -269.958 1372.2 -248.31M1340.9 -325.593C1352.1 -300.143 1362.56 -274.388 1372.2 -248.31M1390.46 -371.902C1400.29 -348.877 1409.39 -325.532 1417.7 -301.887M1390.46 -371.902C1389.21 -352.424 1387.1 -333.027 1384.32 -313.73C1381.08 -291.767 1376.99 -269.965 1372.2 -248.304C1385 -246.059 1397.76 -243.594 1410.45 -240.709C1420.05 -238.524 1429.6 -236.08 1439.04 -233.234M1390.46 -371.902C1400.29 -348.877 1409.4 -325.532 1417.7 -301.887M1390.46 -371.902C1400.39 -367.193 1410.14 -362.063 1419.53 -356.291C1426.87 -351.723 1433.96 -346.753 1440.63 -341.182C1441.92 -324.27 1442.41 -307.297 1442.23 -290.324C1441.96 -271.248 1440.85 -252.211 1439.04 -233.234M1417.7 -301.887C1425.57 -279.263 1432.72 -256.359 1439.04 -233.234M1417.7 -301.887C1425.58 -279.263 1432.72 -256.359 1439.04 -233.234M1440.64 -341.195C1447.56 -320.789 1453.8 -300.144 1459.3 -279.282C1464.47 -259.412 1468.97 -239.363 1472.73 -219.175M1440.64 -341.195C1441.92 -324.262 1442.41 -307.31 1442.23 -290.338C1441.96 -271.262 1440.85 -252.226 1439.04 -233.229C1445.89 -231.125 1452.69 -228.803 1459.3 -226.004C1463.92 -224.039 1468.46 -221.835 1472.73 -219.175M1440.64 -341.195C1445.83 -336.808 1450.75 -332.064 1455.18 -326.863C1458.7 -322.674 1461.88 -318.228 1464.64 -313.484C1467.14 -298.695 1469.05 -283.827 1470.4 -268.88C1471.84 -252.345 1472.59 -235.77 1472.73 -219.175M1431.29 126.381C1433.18 110.587 1434.31 94.7224 1434.79 78.8046C1435.26 60.7774 1434.88 42.75 1433.84 24.7583C1440.85 21.7804 1447.72 18.4833 1454.33 14.6545C1459.14 11.8184 1463.79 8.69877 1468.06 5.0827M1431.29 126.381C1438.96 106.226 1445.97 85.8062 1452.23 65.1556C1458.19 45.3204 1463.5 25.2902 1468.06 5.0827M1431.29 126.381C1436.7 121.24 1441.79 115.727 1446.39 109.807C1450.12 104.897 1453.52 99.7387 1456.49 94.3146C1459.49 80.4176 1461.9 66.4141 1463.81 52.322C1465.88 36.6347 1467.26 20.8764 1468.06 5.0827M1380.46 161.863C1379.94 143.747 1378.54 125.667 1376.51 107.657C1374.1 86.9179 1370.8 66.3022 1366.86 45.8274C1379.72 42.6761 1392.49 39.208 1405.11 35.2116C1414.81 32.1131 1424.43 28.7153 1433.84 24.7541M1380.46 161.863C1391.06 139.276 1400.9 116.336 1409.98 93.062C1418.69 70.5803 1426.67 47.7993 1433.84 24.7541M1380.46 161.863C1390.54 156.388 1400.37 150.437 1409.76 143.835C1417.29 138.483 1424.52 132.726 1431.29 126.389C1433.19 110.597 1434.31 94.7168 1434.79 78.8194C1435.25 60.7741 1434.89 42.7466 1433.84 24.7541M1293.99 198.078C1289.73 177.386 1284.72 156.87 1279.19 136.493C1272.74 112.935 1265.58 89.57 1257.89 66.3795C1277.99 63.3911 1298.04 60.0883 1318.01 56.3135C1334.36 53.1854 1350.67 49.7601 1366.85 45.828M1293.99 198.078C1307.8 173.227 1320.87 147.939 1333.19 122.267M1293.99 198.078C1310.25 192.66 1326.37 186.753 1342.19 180.095C1355.19 174.59 1368 168.578 1380.45 161.868C1379.92 143.745 1378.54 125.675 1376.5 107.675C1374.07 86.9313 1370.8 66.3097 1366.85 45.828M1366.85 45.828C1356.4 71.6573 1345.16 97.1372 1333.19 122.267M1366.85 45.828C1356.4 71.6573 1345.16 97.1546 1333.19 122.267M1165.95 231.114C1157.07 207.9 1147.75 184.86 1138.11 161.976C1127.05 135.76 1115.56 109.735 1103.77 83.8667C1131.33 81.4898 1158.85 78.8007 1186.34 75.6951C1210.23 72.9538 1234.1 69.9001 1257.91 66.3781M1165.95 231.114C1182.68 204.465 1198.74 177.382 1214.12 149.9C1229.41 122.435 1244.01 94.6062 1257.91 66.3781M1165.95 231.114C1189.19 226.43 1212.32 221.208 1235.28 215.274C1255.01 210.139 1274.6 204.465 1293.99 198.08C1289.73 177.382 1284.72 156.875 1279.19 136.506C1272.73 112.928 1265.58 89.5748 1257.91 66.3781M997.955 256.261C984.435 230.846 970.823 205.465 957.148 180.135C941.851 151.84 926.462 123.58 911.011 95.3537C944.48 94.1122 977.928 92.5085 1011.37 90.5256C1042.19 88.6462 1073 86.4563 1103.77 83.8527M997.955 256.261C1016.51 228.622 1034.5 200.585 1051.96 172.204C1069.8 143.098 1087.06 113.648 1103.77 83.8527M997.955 256.261C1027.54 253.106 1057.05 249.364 1086.47 244.968C1113.07 240.95 1139.58 236.381 1165.96 231.104C1157.08 207.896 1147.76 184.86 1138.11 161.962C1127.05 135.753 1115.57 109.734 1103.77 83.8527M801.451 269.075C784.368 242.063 767.486 214.897 750.787 187.627C732.708 158.074 714.843 128.401 697.159 98.6242C733.196 98.8131 769.233 98.6414 805.26 98.109C840.523 97.5423 875.769 96.6324 911.014 95.3445M801.451 269.075C819.958 241.427 838.067 213.523 855.852 185.378M801.451 269.075C835.052 268.13 868.623 266.602 902.173 264.421C934.148 262.309 966.085 259.612 997.959 256.264C984.438 230.832 970.826 205.469 957.142 180.14C941.854 151.823 926.465 123.558 911.014 95.3445M801.451 269.075C819.958 241.427 838.077 213.523 855.852 185.378M911.014 95.3445C892.985 125.585 874.612 155.601 855.852 185.378M596.549 266.994C577.815 239.255 559.529 211.206 541.636 182.865C522.924 153.184 504.652 123.193 486.793 92.9617M596.549 266.994C612.826 240.338 628.967 213.595 644.998 186.784C662.507 157.481 679.886 128.091 697.153 98.6333C661.412 98.4099 625.672 97.8426 589.941 96.8802C555.546 95.9349 521.161 94.646 486.793 92.9617M596.549 266.994C577.815 239.255 559.527 211.206 541.631 182.882C522.923 153.184 504.652 123.193 486.793 92.9617M596.549 266.994C563.732 265.396 530.946 263.213 498.208 260.377C467.458 257.662 436.762 254.396 406.139 250.443C418.45 225.574 430.946 200.808 443.582 176.128C457.823 148.303 472.239 120.598 486.793 92.9617M406.14 250.455C387.923 222.98 370.312 195.107 353.275 166.855C336.011 138.12 319.349 109.004 303.297 79.5432M406.14 250.455C418.45 225.57 430.945 200.806 443.579 176.112C457.82 148.308 472.238 120.592 486.794 92.9613C454.679 91.3553 422.581 89.421 390.51 87.0724C361.408 84.9311 332.335 82.4444 303.297 79.5432M406.14 250.455C387.923 222.98 370.308 195.107 353.272 166.855C336.009 138.12 319.348 109.004 303.297 79.5432M406.14 250.455C378.138 246.777 350.208 242.563 322.388 237.676C297.601 233.255 272.91 228.299 248.366 222.652C255.941 200.116 264.047 177.752 272.53 155.544C282.328 130.02 292.623 104.704 303.297 79.5432M248.368 222.652C232.361 196.421 217.054 169.755 202.451 142.69C188.032 115.815 174.319 88.5758 161.348 60.9365M248.368 222.652C255.942 200.106 264.045 177.751 272.528 155.536C282.326 130.017 292.625 104.707 303.299 79.5365C277.712 76.9637 252.159 74.0434 226.658 70.7059C204.835 67.8203 183.057 64.6044 161.348 60.9365M248.368 222.652C232.361 196.421 217.052 169.755 202.449 142.69C188.03 115.833 174.317 88.5758 161.348 60.9365M248.368 222.652C227.044 217.681 205.843 212.188 184.832 205.982C167.012 200.68 149.344 194.857 131.921 188.303C135.051 168.312 138.971 148.478 143.464 128.783C148.728 105.994 154.751 83.3782 161.348 60.9365M131.921 188.302C118.998 164.014 106.811 139.357 95.3944 114.298M131.921 188.302C135.05 168.321 138.969 148.481 143.463 128.781C148.725 105.981 154.75 83.3731 161.348 60.9408C143.317 57.8763 125.34 54.4791 107.458 50.5916C93.0575 47.457 78.7239 43.9897 64.519 40.0146M131.921 188.302C118.997 164.014 106.81 139.357 95.3944 114.298M131.921 188.302C117.469 182.821 103.202 176.832 89.2495 170.125C77.8941 164.609 66.7672 158.638 56.0239 151.966M95.3944 114.298C84.339 89.8699 74.0261 65.1086 64.519 40.0146M64.519 40.0146C61.4637 59.8026 59.0873 79.6781 57.5854 99.6587C56.3338 117.065 55.7478 134.507 56.0239 151.966M56.0239 151.966C46.2833 130.023 37.2646 107.78 29.011 85.2189C21.1253 63.4519 13.9615 41.4379 7.58002 19.177M56.0239 151.966C55.7476 134.503 56.333 117.058 57.5817 99.6479C59.086 79.6801 61.4624 59.8004 64.5193 40.009C53.4402 36.8869 42.4458 33.4473 31.6275 29.4608C23.4585 26.4268 15.3967 23.0753 7.58002 19.177M56.0239 151.966C47.3972 146.533 39.0435 140.677 31.1457 134.203C24.823 128.947 18.827 123.32 13.316 117.181M7.58002 19.177C7.14135 36.5518 7.37796 53.9089 8.41247 71.2484C9.38653 86.63 10.9879 101.959 13.316 117.181M13.316 117.181C6.32717 97.7027 -0.00445032 77.9756 -5.64068 58.0352C-10.9866 38.8939 -15.6875 19.5927 -19.7 0.114017M13.316 117.181C10.9881 101.964 9.38521 86.6405 8.41164 71.2458C7.3755 53.9156 7.14079 36.55 7.58063 19.1843C1.84009 16.2723 -3.75616 13.0761 -9.02557 9.34727C-12.8468 6.6128 -16.4716 3.5765 -19.7 0.114017M13.316 117.181C8.86365 112.174 4.76253 106.847 1.1221 101.183C-1.88203 96.4598 -4.55064 91.5058 -6.83503 86.3742C-9.94174 72.9149 -12.5304 59.3491 -14.6322 45.6945C-16.9114 30.5838 -18.5856 15.3845 -19.7 0.114017M1301.42 360.043C1303.49 350.512 1304.82 340.851 1305.65 331.141C1306.6 319.126 1306.78 307.078 1306.41 295.03C1319.51 287.74 1332.28 279.898 1344.6 271.325C1355.01 264.018 1365.06 256.208 1374.61 247.781M1301.42 360.043C1314.81 342.345 1327.59 324.192 1339.75 305.601C1352.02 286.75 1363.64 267.46 1374.61 247.781M1301.42 360.043C1312.06 351.649 1322.34 342.783 1332.15 333.382C1340.7 325.101 1348.89 316.447 1356.62 307.387C1360.48 298.619 1363.8 289.64 1366.66 280.482C1369.94 269.75 1372.56 258.838 1374.61 247.781M1217.89 412.913C1216.66 402.181 1214.83 391.544 1212.66 380.987C1209.83 367.352 1206.45 353.877 1202.74 340.482C1221.84 333.784 1240.73 326.464 1259.28 318.315C1275.3 311.203 1291.06 303.517 1306.42 295.033M1217.89 412.913C1233.71 394.654 1248.9 375.836 1263.48 356.509C1278.46 336.511 1292.77 316.003 1306.42 295.033M1217.89 412.913C1233.46 404.86 1248.71 396.201 1263.55 386.776C1276.57 378.452 1289.21 369.569 1301.41 360.033C1303.48 350.528 1304.83 340.864 1305.64 331.137C1306.61 319.129 1306.78 307.073 1306.42 295.033M1102.2 460.291C1096.48 448.227 1090.64 436.209 1084.73 424.239C1077.17 408.962 1069.5 393.717 1061.76 378.519C1086.92 373.348 1111.92 367.488 1136.73 360.814C1158.94 354.75 1180.96 348.029 1202.75 340.477M1102.2 460.291C1119.76 442.069 1136.67 423.22 1153 403.823C1170.24 383.251 1186.81 362.114 1202.75 340.477M1102.2 460.291C1123.09 453.523 1143.74 446.033 1164.1 437.698C1182.34 430.146 1200.29 421.935 1217.89 412.911C1216.66 402.193 1214.82 391.555 1212.66 380.979C1209.83 367.363 1206.44 353.873 1202.75 340.477M956.443 495.76C945.997 482.239 935.816 468.517 925.786 454.672C913.503 437.694 901.465 420.53 889.597 403.259M956.443 495.76C974.401 478.226 991.75 460.075 1008.58 441.429C1026.92 420.993 1044.63 399.986 1061.77 378.501M956.443 495.76C982.014 491.284 1007.44 486.021 1032.68 479.893C1056.07 474.151 1079.26 467.653 1102.2 460.291C1096.49 448.221 1090.64 436.212 1084.73 424.235C1077.18 408.939 1069.51 393.704 1061.77 378.501M889.597 403.259C919.432 400.557 949.195 397.131 978.857 392.886C1006.62 388.842 1034.26 384.088 1061.77 378.501M889.597 403.259C858.463 406.01 827.28 407.966 796.054 409.143C764.259 410.305 732.456 410.656 700.642 410.259C715.869 429.531 731.431 448.512 747.46 467.111C761.174 482.96 775.223 498.503 789.729 513.633M889.597 403.259C872.898 423.723 855.743 443.805 838.04 463.367M889.597 403.259C901.463 420.528 913.504 437.692 925.777 454.671C935.807 468.518 945.998 482.226 956.443 495.752C929.38 500.413 902.175 504.188 874.878 507.153C846.566 510.179 818.173 512.303 789.729 513.633M789.729 513.633C806.337 497.387 822.395 480.576 838.04 463.367M789.729 513.633C806.337 497.387 822.406 480.591 838.04 463.367M616.919 510.73C599.761 494.098 583.169 476.869 567.024 459.211C548.953 439.349 531.464 418.934 514.459 398.122C544.881 401.705 575.382 404.477 605.941 406.514C637.475 408.551 669.05 409.791 700.64 410.266C686.205 429.011 671.476 447.526 656.328 465.705C643.519 481.004 630.426 496.058 616.919 510.73ZM616.919 510.73C599.761 494.098 583.167 476.869 567.023 459.211C548.952 439.349 531.464 418.934 514.46 398.122C503.678 414.815 492.795 431.446 481.752 447.955C472.843 461.264 463.833 474.48 454.652 487.589C480.786 493.087 507.08 497.681 533.497 501.51C561.21 505.446 589.027 508.494 616.919 510.73ZM454.652 487.595C436.64 469.81 419.251 451.39 402.401 432.474C384.207 411.932 366.668 390.801 349.71 369.189M454.652 487.595C463.83 474.489 472.84 461.274 481.745 447.966C492.791 431.452 503.675 414.813 514.458 398.128C485.683 394.658 457 390.491 428.443 385.487C402.054 380.793 375.795 375.417 349.71 369.189M454.652 487.595C436.64 469.81 419.25 451.39 402.396 432.474C384.207 411.932 366.668 390.801 349.71 369.189M454.652 487.595C430.23 482.39 405.976 476.441 381.944 469.593C359.894 463.241 338.056 456.177 316.505 448.245C320.93 436.533 325.614 424.945 330.437 413.419C336.661 398.578 343.118 383.845 349.71 369.189M316.508 448.242C299.317 429.934 282.77 411.013 266.819 391.572C250.111 371.077 234.082 350.046 218.695 328.511M316.508 448.242C320.929 436.53 325.613 424.944 330.436 413.422C336.659 398.577 343.117 383.843 349.712 369.188C326.139 363.505 302.729 357.145 279.553 349.935C259.035 343.513 238.718 336.429 218.695 328.511M316.508 448.242C299.317 429.934 282.768 411.013 266.818 391.572C250.109 371.077 234.082 350.046 218.695 328.511M316.508 448.242C297.054 441.001 277.861 433.099 259.011 424.346C242.235 416.491 225.761 407.991 209.69 398.719C209.872 388.361 210.736 378.019 212 367.739C213.669 354.564 215.986 341.498 218.695 328.511M209.689 398.728C194.484 380.57 179.916 361.867 165.965 342.699M209.689 398.728C209.869 388.358 210.732 378.021 211.997 367.748C213.665 354.558 215.986 341.497 218.696 328.515C201.289 321.576 184.13 314.028 167.331 305.662C152.945 298.434 138.853 290.629 125.182 282.071M209.689 398.728C194.484 380.57 179.914 361.867 165.965 342.699M209.689 398.728C195.535 390.506 181.723 381.691 168.359 372.172C156.669 363.79 145.349 354.895 134.497 345.391C131.793 336.144 129.783 326.689 128.3 317.153C126.554 305.534 125.59 293.818 125.182 282.071M165.965 342.699C151.703 322.954 138.111 302.745 125.182 282.071M165.965 342.699C151.701 322.954 138.111 302.745 125.182 282.071M98.2586 291.768C109.734 310.072 121.814 327.953 134.499 345.393C131.794 336.126 129.783 326.68 128.299 317.152C126.555 305.52 125.592 293.807 125.185 282.06C113.606 274.735 102.36 266.904 91.5929 258.388C82.5154 251.129 73.8083 243.412 65.6045 235.157M98.2586 291.768C86.7403 273.283 75.8513 254.408 65.6045 235.157M98.2586 291.768C86.7403 273.283 75.8497 254.408 65.6045 235.157M98.2586 291.768C109.734 310.072 121.814 327.953 134.5 345.393C125.033 337.056 115.946 328.279 107.311 319.029C99.7712 310.904 92.5945 302.437 85.8266 293.627C81.7119 284.981 78.0652 276.122 74.8562 267.084C71.1903 256.627 68.133 245.957 65.6045 235.157M13.3211 117.196C20.5843 137.267 28.5366 157.082 37.1494 176.608C45.9707 196.457 55.4659 215.965 65.6068 235.15M13.3211 117.196C15.4297 130.656 18.1004 144.014 21.3934 157.218C24.3494 168.889 27.7809 180.424 31.7194 191.789C36.1051 199.081 40.9027 206.1 46.0657 212.848C52.1329 220.685 58.6772 228.096 65.6068 235.15M13.3211 117.196C20.5843 137.267 28.5366 157.082 37.1494 176.591C45.9707 196.457 55.4659 215.965 65.6068 235.15M13.3211 117.196C18.8311 123.33 24.8299 128.952 31.1506 134.2C39.0494 140.674 47.402 146.536 56.0281 151.954C56.3234 167.015 57.2592 182.043 59.0075 197.002C60.5656 209.832 62.7208 222.559 65.6068 235.15M56.0249 151.976C66.0454 174.369 76.8054 196.41 88.2755 218.063C99.8773 239.817 112.184 261.168 125.186 282.081M56.0249 151.976C56.3214 167.034 57.2571 182.058 59.0082 197.015C60.5632 209.836 62.7195 222.589 65.6039 235.174C73.809 243.435 82.5149 251.14 91.5914 258.408C102.36 266.922 113.604 274.762 125.186 282.081M56.0249 151.976C66.0454 174.369 76.8054 196.41 88.2771 218.063C99.8773 239.817 112.184 261.168 125.186 282.081M56.0249 151.976C66.7685 158.655 77.8959 164.628 89.254 170.146C103.206 176.843 117.472 182.832 131.922 188.317C129.327 205.243 127.303 222.236 126.092 239.329C125.138 253.563 124.753 267.813 125.186 282.081M131.923 188.31C145.003 212.732 158.816 236.721 173.351 260.279C187.771 283.505 202.882 306.266 218.698 328.528M131.923 188.31C129.329 205.244 127.305 222.228 126.096 239.327C125.142 253.555 124.755 267.816 125.187 282.077C138.856 290.627 152.948 298.446 167.334 305.668C184.133 314.019 201.291 321.572 218.698 328.528M131.923 188.31C145.005 212.732 158.816 236.721 173.353 260.279C187.772 283.505 202.882 306.266 218.698 328.528M131.923 188.31C149.346 194.868 167.015 200.695 184.835 206.008C205.847 212.217 227.046 217.712 248.371 222.676C242.002 241.735 236.012 260.943 230.592 280.317C226.167 296.255 222.13 312.325 218.698 328.528M248.371 222.668C264.208 248.484 280.715 273.857 297.906 298.771C314.533 322.735 331.787 346.239 349.713 369.203M248.371 222.668C242.002 241.731 236.016 260.941 230.593 280.315C226.168 296.263 222.131 312.326 218.698 328.521C238.718 336.437 259.034 343.518 279.554 349.96C302.731 357.156 326.139 363.499 349.713 369.203M248.371 222.668C264.209 248.484 280.715 273.857 297.909 298.771C314.535 322.735 331.787 346.223 349.713 369.203M248.371 222.668C272.915 228.323 297.606 233.273 322.392 237.698C350.215 242.583 378.14 246.796 406.144 250.451M349.713 369.203C357.905 351.009 366.31 332.946 374.849 314.933C385.105 293.346 395.555 271.858 406.144 250.451M406.144 250.451C423.656 276.761 441.715 302.665 460.374 328.131C477.861 351.894 495.864 375.252 514.461 398.123M406.144 250.451C395.558 271.878 385.108 293.354 374.855 314.928C366.312 332.932 357.906 351.002 349.713 369.201C375.798 375.414 402.056 380.799 428.445 385.487C457.002 390.483 485.684 394.668 514.461 398.123M406.144 250.451C423.656 276.761 441.715 302.665 460.376 328.131C477.863 351.894 495.864 375.252 514.461 398.123M406.144 250.451C436.766 254.409 467.464 257.685 498.215 260.394C530.952 263.217 563.736 265.406 596.552 267.012C582.095 290.662 567.529 314.246 552.819 337.734C540.152 357.944 527.382 378.074 514.461 398.123M596.551 267.013C613.963 292.739 631.754 318.174 649.995 343.288C666.479 365.919 683.331 388.276 700.639 410.262M596.551 267.013C582.095 290.659 567.53 314.257 552.823 337.743C540.153 357.956 527.381 378.088 514.458 398.124C544.88 401.719 575.381 404.491 605.94 406.522C637.475 408.553 669.048 409.794 700.639 410.262M596.551 267.013C613.965 292.739 631.756 318.174 649.998 343.288C666.49 365.919 683.34 388.276 700.639 410.262M596.551 267.013C630.547 268.625 664.56 269.592 698.598 269.963C732.889 270.301 767.169 270.011 801.45 269.092C784.417 294.496 767.068 319.641 749.313 344.497C733.427 366.692 717.235 388.646 700.639 410.262M997.957 256.281C1009.67 278.341 1021.33 300.417 1032.89 322.558C1042.59 341.17 1052.23 359.815 1061.76 378.525C1034.26 384.092 1006.61 388.85 978.852 392.897C949.191 397.153 919.427 400.585 889.593 403.271M997.957 256.281C980.274 282.517 962.082 308.412 943.333 333.871C925.924 357.404 908.038 380.58 889.593 403.271M997.957 256.281C966.082 259.632 934.147 262.335 902.159 264.455C868.621 266.624 835.05 268.161 801.449 269.1C816.778 293.296 832.278 317.362 848.003 341.3C861.677 362.097 875.514 382.765 889.593 403.271M1165.96 231.135C1173.46 250.839 1180.64 270.675 1187.36 290.658C1192.87 307.144 1198.05 323.728 1202.73 340.492C1180.97 348.04 1158.94 354.756 1136.73 360.801C1111.92 367.5 1086.92 373.366 1061.75 378.529M1165.96 231.135C1149.51 257.195 1132.44 282.815 1114.69 307.944C1097.67 331.946 1080.04 355.507 1061.75 378.529M1165.96 231.135C1139.56 236.396 1113.06 240.971 1086.47 244.99C1057.04 249.385 1027.53 253.127 997.953 256.28C1009.67 278.338 1021.32 300.428 1032.88 322.568C1042.59 341.178 1052.22 359.821 1061.75 378.529M1293.99 198.079C1297.54 215.563 1300.57 233.147 1302.82 250.847C1304.64 265.52 1305.93 280.242 1306.43 295.014C1291.06 303.5 1275.3 311.208 1259.29 318.288C1240.74 326.443 1221.86 333.771 1202.74 340.471M1293.99 198.079C1280.1 222.958 1265.49 247.406 1250.15 271.392C1235.03 294.898 1219.24 317.941 1202.74 340.471M1293.99 198.079C1274.61 204.464 1255.02 210.138 1235.29 215.282C1212.32 221.204 1189.19 226.431 1165.96 231.129C1173.46 250.814 1180.65 270.648 1187.37 290.647C1192.89 307.122 1198.06 323.714 1202.74 340.471M1380.47 161.879C1380.86 177.419 1380.61 192.959 1379.53 208.466C1378.56 221.643 1376.97 234.769 1374.61 247.794C1365.05 256.21 1355.01 264.022 1344.59 271.331C1332.28 279.88 1319.51 287.743 1306.43 295.018M1380.47 161.879C1369.62 184.879 1358.03 207.494 1345.72 229.689C1333.33 251.918 1320.21 273.694 1306.43 295.018M1380.47 161.879C1367.99 168.602 1355.21 174.603 1342.19 180.102C1326.35 186.757 1310.27 192.674 1293.98 198.089C1297.55 215.557 1300.57 233.159 1302.81 250.862C1304.64 265.53 1305.92 280.249 1306.43 295.018M1431.27 126.406C1429.54 140.263 1427.23 154.052 1424.22 167.688C1421.53 179.66 1418.32 191.497 1414.56 203.146C1409.31 210.754 1403.6 218.005 1397.52 224.916C1390.35 233.016 1382.67 240.624 1374.61 247.79M1431.27 126.406C1423.31 147.124 1414.64 167.553 1405.3 187.676C1395.74 208.07 1385.51 228.109 1374.61 247.79M1431.27 126.406C1424.52 132.74 1417.29 138.497 1409.75 143.863C1400.34 150.469 1390.53 156.413 1380.46 161.881C1380.86 177.419 1380.61 192.974 1379.53 208.461C1378.55 221.656 1376.97 234.782 1374.61 247.79M134.502 345.411C146.967 362.457 159.994 379.048 173.588 395.171C186.777 410.715 200.477 425.774 214.698 440.333M134.502 345.411C136.785 353.074 139.537 360.58 142.838 367.851C145.653 373.95 148.841 379.861 152.422 385.538C161.497 394.999 170.944 404.085 180.726 412.779C191.67 422.443 203.011 431.623 214.698 440.333M134.502 345.411C146.967 362.457 159.995 379.048 173.59 395.171C186.777 410.715 200.477 425.774 214.698 440.333M134.502 345.411C145.356 354.903 156.676 363.801 168.364 372.199C181.729 381.707 195.541 390.511 209.693 398.736C209.595 406.696 209.901 414.656 210.892 422.553C211.688 428.574 212.887 434.532 214.698 440.333M209.696 398.73C224.337 416.123 239.544 432.981 255.347 449.287C270.344 464.643 285.85 479.479 301.901 493.703M209.696 398.73C209.598 406.676 209.904 414.638 210.897 422.538C211.693 428.556 212.89 434.527 214.701 440.33C227.74 449.975 241.181 459.024 254.957 467.537C270.246 476.923 285.917 485.619 301.901 493.703M209.696 398.73C224.337 416.123 239.545 432.981 255.349 449.287C270.344 464.643 285.853 479.479 301.901 493.703M209.696 398.73C225.767 407.993 242.242 416.506 259.018 424.345C277.866 433.103 297.06 441.003 316.512 448.245C313.232 456.973 310.093 465.746 307.252 474.61C305.257 480.903 303.406 487.257 301.901 493.703M301.901 493.703C319.49 502.527 337.422 510.586 355.631 517.984C375.456 525.968 395.572 533.141 415.922 539.594C398.95 526.283 382.52 512.297 366.575 497.725C349.308 481.847 332.638 465.325 316.511 448.247M301.901 493.703C303.405 487.265 305.259 480.902 307.255 474.614C310.096 465.745 313.234 456.966 316.511 448.247M316.511 448.247C332.638 465.325 349.309 481.847 366.578 497.725C382.52 512.297 398.95 526.283 415.921 539.594C421.741 532.451 427.357 525.158 432.875 517.789C440.293 507.84 447.525 497.755 454.658 487.595C430.236 482.403 405.984 476.43 381.952 469.602C359.901 463.254 338.064 456.185 316.511 448.247ZM454.654 487.606C471.016 503.671 487.871 519.204 505.306 534.044C520.875 547.215 536.886 559.825 553.419 571.726M454.654 487.606C447.522 497.765 440.289 507.85 432.873 517.802C427.355 525.17 421.739 532.464 415.917 539.596C437.783 546.462 459.881 552.471 482.167 557.743C505.756 563.235 529.519 567.887 553.419 571.726M454.654 487.606C471.018 503.671 487.873 519.204 505.309 534.044C520.878 547.215 536.886 559.825 553.419 571.726M454.654 487.606C480.785 493.099 507.079 497.721 533.496 501.53C561.208 505.458 589.026 508.514 616.917 510.744C605.809 522.748 594.428 534.502 582.633 545.812C573.198 554.804 563.511 563.516 553.419 571.726M616.919 510.742C631.915 525.205 647.327 539.214 663.272 552.58C676.947 563.958 690.985 574.852 705.522 585.06M616.919 510.742C605.811 522.748 594.431 534.491 582.638 545.81C573.202 554.789 563.513 563.504 553.419 571.723C578.302 575.642 603.301 578.713 628.383 580.95M616.919 510.742C631.917 525.205 647.33 539.2 663.272 552.566C676.947 563.958 690.985 574.852 705.522 585.06M616.919 510.742C645.579 512.965 674.286 514.325 703.034 514.851C731.934 515.29 760.846 514.895 789.725 513.652C775.382 527.603 760.653 541.13 745.406 554.043C732.503 564.908 719.256 575.32 705.522 585.06M705.522 585.06C679.767 584.548 654.049 583.188 628.383 580.95M628.383 580.95C603.3 578.713 578.302 575.65 553.417 571.717C567.973 582.119 582.907 591.923 598.291 600.985C611.689 608.808 625.401 616.061 639.474 622.545M628.383 580.95C654.049 583.187 679.767 584.541 705.522 585.054C694.101 593.105 682.376 600.672 670.236 607.526C660.257 613.112 650.024 618.184 639.474 622.545M956.439 495.769C964.682 506.408 973.078 516.915 981.747 527.201C988.325 534.986 995.065 542.623 1002.08 550.01C979.23 556.146 956.166 561.429 932.95 565.932C908.597 570.612 884.092 574.394 859.495 577.396M956.439 495.769C940.28 511.441 923.652 526.598 906.456 541.063M956.439 495.769C929.367 500.419 902.171 504.215 874.875 507.188C846.563 510.19 818.171 512.324 789.727 513.648C801.826 526.186 814.241 538.414 827.103 550.143C837.569 559.634 848.309 568.787 859.495 577.396M859.495 577.396C875.636 565.947 891.259 553.777 906.456 541.063M859.495 577.396C875.626 565.947 891.259 553.777 906.456 541.063M1102.2 460.296C1106.47 469.346 1110.7 478.425 1114.75 487.579C1117.64 494.105 1120.45 500.645 1123.11 507.276C1104.27 515.668 1085.13 523.269 1065.73 530.183C1044.76 537.59 1023.52 544.16 1002.08 549.999M1102.2 460.296C1085.87 477.171 1069 493.477 1051.54 509.127C1035.55 523.359 1019.09 537.037 1002.08 549.999M1102.2 460.296C1079.25 467.658 1056.06 474.154 1032.67 479.918C1007.43 486.041 982.012 491.297 956.442 495.762C964.684 506.409 973.079 516.922 981.749 527.196C988.327 534.977 995.067 542.622 1002.08 549.999M1102.2 460.296C1085.87 477.171 1069 493.477 1051.53 509.127C1035.54 523.359 1019.09 537.037 1002.08 549.999M1217.89 412.926C1218.78 421.025 1219.34 429.154 1219.25 437.314C1219.16 443.343 1218.71 449.372 1217.65 455.324C1203.39 464.854 1188.73 473.745 1173.77 482.042C1157.21 491.161 1140.29 499.534 1123.1 507.283M1217.89 412.926C1202.75 430.296 1187.04 447.134 1170.74 463.377C1155.38 478.601 1139.52 493.262 1123.1 507.283M1217.89 412.926C1200.3 421.954 1182.33 430.159 1164.08 437.71C1143.75 446.038 1123.09 453.528 1102.2 460.302C1106.47 469.36 1110.68 478.434 1114.75 487.598C1117.64 494.114 1120.45 500.66 1123.1 507.283M1301.41 360.047C1299.69 367.774 1297.47 375.361 1294.67 382.747C1292.3 388.811 1289.53 394.719 1286.31 400.363C1276.24 409.972 1265.78 419.129 1255 427.852C1242.93 437.538 1230.46 446.681 1217.64 455.31M1301.41 360.047C1288.31 377.243 1274.65 393.957 1260.42 410.174C1246.69 425.738 1232.42 440.788 1217.64 455.31M1301.41 360.047C1289.22 369.578 1276.56 378.456 1263.54 386.789C1248.73 396.196 1233.46 404.872 1217.89 412.926C1218.78 421.026 1219.33 429.158 1219.26 437.305C1219.16 443.338 1218.71 449.371 1217.64 455.31M1130.33 529.082C1129.76 526.224 1128.91 523.411 1128.01 520.642C1126.53 516.123 1124.85 511.694 1123.09 507.28C1140.31 499.544 1157.21 491.149 1173.77 482.051C1188.74 473.731 1203.38 464.843 1217.65 455.311M1130.33 529.082C1145.29 518.278 1159.84 506.891 1174 495.01M1130.33 529.082C1144.61 521.106 1158.6 512.622 1172.27 503.599C1184.8 495.264 1197.03 486.51 1208.93 477.293C1210.94 474.464 1212.58 471.427 1213.93 468.224C1215.64 464.065 1216.81 459.725 1217.65 455.311M1130.33 529.082C1145.29 518.278 1159.85 506.891 1174 495.01M1217.65 455.311C1203.55 469.063 1189.01 482.32 1174 495.01M1030.11 574.745C1025.85 571.948 1021.85 568.74 1017.99 565.387C1012.45 560.525 1007.19 555.326 1002.08 549.98C1023.52 544.166 1044.76 537.59 1065.73 530.18C1085.13 523.268 1104.27 515.652 1123.11 507.261M1030.11 574.745C1045.78 565.255 1061.05 555.091 1075.94 544.371M1030.11 574.745C1047.97 568.169 1065.58 560.949 1082.91 553.041C1098.99 545.645 1114.82 537.664 1130.34 529.067C1129.75 526.197 1128.92 523.4 1128.03 520.632C1126.55 516.121 1124.86 511.683 1123.11 507.261M1123.11 507.261C1107.84 520.236 1092.13 532.626 1075.94 544.371M1123.11 507.261C1107.84 520.236 1092.14 532.626 1075.94 544.371M910.168 608.452C902.189 605.015 894.514 600.901 887.063 596.414C877.531 590.603 868.385 584.174 859.492 577.4C884.099 574.408 908.593 570.611 932.947 565.951C956.163 561.435 979.226 556.142 1002.08 550M910.168 608.452C925.383 600.642 940.234 592.099 954.73 582.966C970.963 572.668 986.728 561.622 1002.08 550M910.168 608.452C931.049 604.195 951.766 599.204 972.302 593.436C991.783 587.913 1011.07 581.7 1030.1 574.753C1025.83 571.963 1021.84 568.756 1017.98 565.39C1012.44 560.529 1007.18 555.336 1002.08 550M776.759 625.27C765.318 620.508 754.203 614.993 743.361 608.952C730.358 601.66 717.771 593.614 705.518 585.071C731.393 585.526 757.278 585.114 783.134 583.863C808.644 582.541 834.113 580.409 859.491 577.395M776.759 625.27C790.22 619.272 803.324 612.52 816.135 605.199C831.006 596.613 845.432 587.289 859.491 577.395M776.759 625.27C799.437 624.034 822.053 622.015 844.599 619.201C866.567 616.386 888.433 612.818 910.166 608.454C902.187 605.014 894.512 600.906 887.051 596.414C877.52 590.601 868.373 584.19 859.491 577.395M776.759 625.27C790.22 619.272 803.334 612.52 816.145 605.199C831.006 596.613 845.432 587.289 859.491 577.395M639.474 622.545C625.401 616.061 611.689 608.808 598.287 600.985C582.904 591.923 567.972 582.119 553.419 571.717C545.554 578.072 537.458 584.114 528.991 589.6C522.53 593.732 515.867 597.537 508.903 600.743C530.021 605.873 551.305 610.247 572.724 613.867C594.872 617.557 617.132 620.436 639.474 622.545ZM415.919 539.59C431.378 551.624 447.261 563.08 463.613 573.814C478.345 583.421 493.432 592.422 508.906 600.728C515.869 597.536 522.53 593.736 528.991 589.59C537.459 584.115 545.556 578.062 553.422 571.705C529.521 567.862 505.759 563.225 482.17 557.735C459.885 552.462 437.784 546.438 415.919 539.59ZM415.919 539.59C431.378 551.624 447.259 563.08 463.612 573.814C478.343 583.421 493.43 592.422 508.907 600.728C488.758 595.744 468.79 590.067 449.042 583.623C430.43 577.498 412.041 570.708 393.917 563.196C397.188 560.437 400.224 557.388 403.169 554.268C407.599 549.544 411.807 544.603 415.919 539.59ZM393.918 563.193C378.338 553.295 363.165 542.765 348.377 531.674C332.415 519.627 316.931 506.931 301.896 493.69C319.487 502.512 337.422 510.583 355.63 517.977C375.454 525.96 395.57 533.132 415.919 539.583C411.806 544.591 407.597 549.54 403.167 554.267C400.224 557.39 397.185 560.424 393.918 563.193ZM393.918 563.193C378.338 553.295 363.164 542.765 348.376 531.674C332.414 519.627 316.931 506.931 301.898 493.69C300.905 498.02 300.062 502.38 299.625 506.798C299.364 509.611 299.262 512.439 299.603 515.267M393.918 563.193C377.017 556.138 360.373 548.479 344.029 540.158C328.928 532.411 314.104 524.133 299.603 515.267M299.603 515.267C314.486 525.038 361.378 555.402 382.963 569.363M393.92 563.199C408.227 572.224 422.847 580.704 437.795 588.585M393.92 563.199C391.881 564.915 389.756 566.531 387.424 567.79C386.023 568.533 384.54 569.149 382.963 569.363M393.92 563.199C408.227 572.224 422.848 580.704 437.795 588.585M393.92 563.199C412.045 570.708 430.434 577.501 449.046 583.636C468.794 590.072 488.761 595.75 508.909 600.727C503.634 603.101 498.208 605.118 492.602 606.505C488.28 607.549 483.888 608.193 479.448 608.321M437.795 588.585C451.432 595.693 465.316 602.3 479.448 608.321M479.448 608.321C462.487 602.815 445.718 596.723 429.168 590.044C413.541 583.679 398.129 576.786 382.963 569.363M590.368 635.293C577.128 631.1 564.096 626.301 551.269 620.94C536.857 614.861 522.742 608.079 508.909 600.734C503.634 603.112 498.21 605.124 492.604 606.503C488.281 607.544 483.887 608.206 479.447 608.318C497.25 614.045 515.239 619.125 533.385 623.586C552.243 628.159 571.245 632.057 590.368 635.293ZM590.368 635.293C577.128 631.1 564.096 626.301 551.27 620.94C536.858 614.861 522.742 608.079 508.908 600.734C530.026 605.884 551.31 610.246 572.729 613.876C594.876 617.549 617.133 620.434 639.477 622.544C630.836 626.048 622.01 629.046 612.986 631.339C605.542 633.183 597.996 634.547 590.368 635.293ZM676.756 637.294C664.077 633.057 651.66 628.095 639.478 622.534C630.837 626.033 622.015 629.043 612.99 631.343C605.542 633.183 597.997 634.535 590.367 635.287C610.019 638.549 629.771 641.113 649.595 642.995C669.73 644.835 689.922 645.978 710.133 646.41M676.756 637.294C687.729 640.918 698.855 643.984 710.133 646.41M676.756 637.294C664.077 633.057 651.66 628.095 639.477 622.534C662.25 624.625 685.08 625.893 707.931 626.381C730.881 626.799 753.834 626.437 776.766 625.252C765.224 630.325 753.459 634.813 741.449 638.591C731.157 641.782 720.711 644.417 710.133 646.41M910.166 608.457C916.369 611.093 922.733 613.309 929.28 614.88C934.458 616.086 939.715 616.871 945.014 617.096C926.611 622.214 908.034 626.66 889.326 630.475C869.998 634.345 850.548 637.529 831.008 640.025M910.166 608.457C896.665 615.315 882.89 621.597 868.841 627.165M910.166 608.457C888.432 612.818 866.567 616.394 844.6 619.213C822.054 622.018 799.438 624.023 776.76 625.258C786.261 629.156 795.955 632.536 805.862 635.187C814.136 637.346 822.521 639.001 831.008 640.025M831.008 640.025C843.808 636.351 856.425 632.031 868.841 627.165M831.008 640.025C843.808 636.351 856.415 632.031 868.841 627.165M1030.1 574.758C1032.98 576.608 1035.96 578.288 1039.15 579.483C1041.31 580.28 1043.54 580.835 1045.84 580.949C1029.9 587.993 1013.73 594.468 997.366 600.403C980.109 606.579 962.649 612.129 945.016 617.095M1030.1 574.758C1015.81 583.354 1001.21 591.394 986.291 598.794C972.77 605.44 959.015 611.56 945.016 617.095M1030.1 574.758C1011.06 581.717 991.783 587.922 972.303 593.458C951.767 599.207 931.038 604.188 910.158 608.457C916.369 611.09 922.734 613.31 929.292 614.889C934.459 616.085 939.717 616.868 945.016 617.095M778.917 -865.958C766.929 -872.257 754.666 -877.974 742.098 -882.925C731.39 -887.085 720.496 -890.687 709.401 -893.593C730.566 -893.988 751.733 -893.639 772.878 -892.547C793.829 -891.408 814.721 -889.525 835.531 -886.899C826.626 -885.016 817.888 -882.46 809.321 -879.369C798.915 -875.557 788.793 -871.025 778.917 -865.958ZM369.954 -813.038C371.532 -812.037 372.931 -810.786 374.276 -809.49C376.625 -807.192 378.797 -804.713 380.912 -802.188C363.56 -794.955 346.473 -787.109 329.704 -778.556C314.293 -770.641 299.175 -762.157 284.403 -753.059C298.418 -764.477 312.812 -775.372 327.595 -785.744C341.397 -795.342 355.516 -804.463 369.954 -813.038ZM1058.21 -825.121C1072.81 -816.952 1087.11 -808.213 1101.07 -798.971C1116.14 -788.93 1130.81 -778.342 1145.11 -767.207C1129.24 -776.038 1113.04 -784.207 1096.57 -791.783C1078.72 -799.906 1060.58 -807.3 1042.2 -814.031C1045.15 -816.747 1048.22 -819.348 1051.53 -821.584C1053.64 -822.999 1055.83 -824.277 1058.21 -825.121ZM284.401 -753.06C283.993 -749.234 284.087 -745.407 284.39 -741.581C284.876 -735.919 285.831 -730.303 286.979 -724.731C270.709 -716.653 254.753 -707.97 239.191 -698.55C225.268 -690.046 211.693 -680.984 198.536 -671.317C212.225 -686.332 226.411 -700.877 241.106 -714.885C255.093 -728.132 269.52 -740.865 284.401 -753.06ZM1224.66 -714.224C1238.28 -701.627 1251.45 -688.544 1264.2 -675.017C1277.4 -660.936 1290.11 -646.369 1302.32 -631.403C1292.34 -641.012 1281.95 -650.155 1271.19 -658.833C1259.08 -668.552 1246.54 -677.695 1233.65 -686.285C1232.87 -691.798 1231.71 -697.244 1229.95 -702.513C1228.56 -706.586 1226.83 -710.527 1224.66 -714.224ZM791.978 -733.735C777.126 -749.606 761.88 -765.112 746.125 -780.048C732.705 -792.708 718.93 -804.935 704.657 -816.571C731.588 -817.026 758.509 -816.616 785.411 -815.364C811.946 -814.043 838.42 -811.88 864.813 -808.829C853.14 -798.355 841.891 -787.426 830.929 -776.178C817.56 -762.402 804.616 -748.194 791.978 -733.735ZM136.648 -616.611C133.001 -609.891 129.815 -602.955 127.048 -595.804C123.81 -587.317 121.187 -578.615 119.072 -569.762C109.731 -561.706 100.776 -553.219 92.2985 -544.216C84.9657 -536.375 78.0146 -528.19 71.4958 -519.617C81.3067 -536.634 91.6763 -553.305 102.592 -569.59C113.424 -585.658 124.776 -601.339 136.648 -616.611ZM1302.32 -631.398C1314.83 -615.954 1326.82 -600.098 1338.27 -583.832C1349.87 -567.242 1360.9 -550.283 1371.36 -532.935C1363.81 -541.761 1355.8 -550.132 1347.42 -558.114C1337.71 -567.263 1327.5 -575.851 1316.93 -583.962C1315.39 -592.939 1313.34 -601.807 1310.62 -610.481C1308.33 -617.641 1305.59 -624.649 1302.32 -631.398ZM71.4891 -519.623C67.4882 -509.884 64.0082 -499.914 61.008 -489.818C57.5977 -478.11 54.8457 -466.256 52.6555 -454.254C45.9375 -447.761 39.5987 -440.87 33.7481 -433.54C28.8408 -427.319 24.3047 -420.805 20.1992 -414.019C27.5017 -432.094 35.4051 -449.939 43.8908 -467.47C52.5099 -485.169 61.7134 -502.574 71.4891 -519.623ZM1371.36 -532.94C1381.82 -515.488 1391.68 -497.678 1400.94 -479.553C1410.09 -461.513 1418.63 -443.157 1426.53 -424.527C1421.54 -431.634 1416.07 -438.362 1410.22 -444.754C1403.21 -452.324 1395.7 -459.368 1387.82 -465.991C1386.12 -478.292 1383.84 -490.487 1380.84 -502.536C1378.22 -512.839 1375.09 -522.994 1371.36 -532.94ZM699.877 -617.839C684.905 -638.66 669.658 -659.281 654.032 -679.612C640.661 -696.959 627.023 -714.083 613.01 -730.873C642.693 -733.056 672.419 -734.392 702.181 -734.904C732.117 -735.349 762.063 -734.949 791.98 -733.724C776.965 -716.488 762.39 -698.851 748.126 -680.97C731.65 -660.238 715.601 -639.172 699.877 -617.839ZM20.2016 -414.016C16.5669 -401.615 13.4787 -389.071 10.9012 -376.406C8.04951 -362.137 5.85757 -347.726 4.25385 -333.254C0.028935 -328.972 -3.88001 -324.385 -7.3279 -319.432C-10.1001 -315.373 -12.5484 -311.11 -14.6013 -306.625C-10.1041 -324.628 -5.00281 -342.469 0.674793 -360.107C6.5849 -378.293 13.1011 -396.276 20.2016 -414.016ZM1426.53 -424.528C1434.24 -406.223 1441.34 -387.673 1447.8 -368.859C1454.03 -350.595 1459.65 -332.148 1464.63 -313.476C1461.87 -318.22 1458.68 -322.68 1455.17 -326.854C1450.73 -332.066 1445.82 -336.79 1440.62 -341.188C1439.43 -356.154 1437.61 -371.038 1435.08 -385.821C1432.8 -398.852 1429.97 -411.761 1426.53 -424.528ZM806.9 -92.3328C788.599 -124.921 770.234 -157.47 751.79 -189.979C733.547 -222.099 715.235 -254.179 696.842 -286.201C733.253 -286.338 769.676 -286.221 806.097 -285.831C841.718 -285.421 877.329 -284.777 912.95 -283.86C895.825 -252.326 878.577 -220.889 861.21 -189.492C843.222 -157.04 825.121 -124.648 806.9 -92.3328ZM-24.1793 -215.612C-24.6613 -198.059 -24.4408 -180.505 -23.5871 -162.971C-22.5989 -143.872 -20.8597 -124.831 -18.4462 -105.865C-21.7975 -106.247 -25.1451 -106.686 -28.4684 -107.277C-30.3309 -107.602 -32.1953 -107.983 -33.9998 -108.556C-33.6823 -125.88 -32.7426 -143.185 -31.2145 -160.433C-29.5239 -178.903 -27.1645 -197.315 -24.1793 -215.612ZM1472.73 -219.161C1476.21 -200.136 1479.04 -181.015 1481.16 -161.78C1483.07 -143.863 1484.37 -125.888 1485 -107.856C1482.42 -107.283 1479.81 -106.882 1477.19 -106.519C1472.83 -105.908 1468.44 -105.469 1464.06 -105.068C1467.05 -124.761 1469.35 -144.551 1470.85 -164.435C1472.17 -182.639 1472.82 -200.9 1472.73 -219.161ZM806.904 -92.3281C824.841 -60.3537 842.708 -28.3427 860.492 3.72337C877.413 34.2319 894.256 64.7772 911.014 95.359C875.77 96.6416 840.525 97.5577 805.259 98.1074C769.233 98.6571 733.195 98.8222 697.158 98.6389C715.452 67.3975 733.613 36.0826 751.65 4.69449C770.197 -27.5731 788.611 -59.914 806.904 -92.3281ZM1468.06 5.08475C1468.89 -12.413 1468.97 -29.9292 1468.41 -47.4454C1467.7 -66.693 1466.24 -85.9038 1464.06 -105.041C1468.44 -105.464 1472.82 -105.906 1477.21 -106.496C1479.82 -106.883 1482.42 -107.269 1485 -107.859C1483.61 -89.4586 1481.57 -71.1136 1478.87 -52.8606C1475.96 -33.4104 1472.34 -14.0891 1468.06 5.08475ZM696.842 -286.199C679.209 -316.877 661.504 -347.535 643.72 -378.151C627.184 -406.582 610.579 -434.972 593.889 -463.32C628.583 -464.722 663.291 -465.567 698.019 -465.897C733.009 -466.186 768.001 -465.938 802.992 -465.155C785.553 -436.477 768.286 -407.695 751.16 -378.831C732.898 -348.05 714.799 -317.166 696.842 -286.199ZM697.158 98.6229C714.841 128.416 732.706 158.089 750.776 187.625C767.485 214.896 784.366 242.065 801.451 269.079C767.181 269.988 732.889 270.28 698.599 269.937C664.562 269.577 630.547 268.599 596.553 266.987C612.832 240.332 628.974 213.593 645.006 186.784C662.512 157.471 679.891 128.073 697.158 98.6229ZM1356.62 307.381C1360.48 298.614 1363.81 289.632 1366.65 280.485C1369.94 269.753 1372.56 258.823 1374.62 247.777C1382.67 240.611 1390.35 233.016 1397.53 224.91C1403.61 217.992 1409.32 210.743 1414.57 203.132C1406.12 221.162 1397.05 238.878 1387.43 256.28C1377.73 273.666 1367.45 290.705 1356.62 307.381ZM85.825 293.628C75.6562 277.28 66.0329 260.584 56.9664 243.572C47.981 226.611 39.5606 209.334 31.7165 191.792C36.1012 199.087 40.8999 206.117 46.0622 212.849C52.1287 220.691 58.6726 228.103 65.6043 235.166C68.1303 245.96 71.1904 256.638 74.8543 267.1C78.0621 276.12 81.7114 284.973 85.825 293.628ZM700.636 410.273C715.863 429.551 731.425 448.525 747.443 467.118C761.167 482.967 775.216 498.527 789.722 513.645C760.842 514.895 731.932 515.291 703.022 514.849C674.283 514.331 645.575 512.96 616.914 510.735C630.424 496.074 643.517 481.017 656.326 465.716C671.472 447.55 686.201 429.033 700.636 410.273ZM801.452 269.092C816.78 293.283 832.282 317.362 847.996 341.312C861.679 362.088 875.515 382.769 889.595 403.272C858.462 406.026 827.276 407.975 796.051 409.167C764.257 410.31 732.454 410.681 700.64 410.262C717.238 388.632 733.439 366.679 749.316 344.501C767.07 319.633 784.428 294.475 801.452 269.092ZM1414.57 203.138C1418.32 191.474 1421.53 179.655 1424.23 167.682C1427.24 154.042 1429.54 140.265 1431.27 126.403C1436.69 121.249 1441.78 115.735 1446.38 109.808C1450.13 104.912 1453.51 99.7589 1456.48 94.3305C1450.82 112.728 1444.54 130.903 1437.66 148.855C1430.57 167.218 1422.86 185.324 1414.57 203.138ZM31.7176 191.8C24.0348 174.487 16.9204 156.915 10.3946 139.12C4.07964 121.737 -1.67029 104.166 -6.83323 86.3876C-4.54608 91.5212 -1.87776 96.4654 1.12622 101.203C4.76608 106.87 8.86641 112.177 13.3193 117.207C15.4276 130.661 18.0977 144.029 21.3901 157.225C24.3451 168.905 27.7792 180.43 31.7176 191.8ZM789.723 513.649C801.824 526.195 814.24 538.42 827.1 550.149C837.557 559.643 848.306 568.8 859.493 577.403C834.114 580.412 808.645 582.559 783.136 583.859C757.281 585.115 731.395 585.524 705.52 585.057C719.255 575.315 732.501 564.901 745.403 554.049C760.65 541.137 775.39 527.597 789.723 513.649ZM1286.32 400.36C1289.54 394.71 1292.31 388.806 1294.67 382.727C1297.48 375.347 1299.7 367.761 1301.43 360.031C1312.07 351.651 1322.33 342.779 1332.15 333.384C1340.69 325.099 1348.88 316.449 1356.62 307.387C1345.85 323.861 1334.54 339.954 1322.72 355.635C1311.08 370.967 1298.94 385.885 1286.32 400.36ZM152.424 385.534C140.408 371.142 128.88 356.352 117.84 341.162C106.649 325.685 95.9772 309.841 85.8307 293.63C92.6013 302.437 99.7781 310.91 107.319 319.047C115.952 328.286 125.037 337.061 134.504 345.39C136.788 353.065 139.539 360.564 142.839 367.839C145.655 373.934 148.844 379.854 152.424 385.534ZM1208.92 477.286C1210.93 474.471 1212.58 471.426 1213.93 468.213C1215.64 464.066 1216.82 459.721 1217.64 455.314C1230.45 446.685 1242.93 437.535 1254.99 427.849C1265.78 419.128 1276.23 409.963 1286.31 400.369C1274.03 414.354 1261.31 427.911 1248.14 441.024C1235.47 453.555 1222.39 465.658 1208.92 477.286ZM299.602 515.268C284.99 504.172 270.785 492.549 256.978 480.429C242.419 467.571 228.329 454.187 214.698 440.321C227.738 449.971 241.178 459.035 254.955 467.541C270.244 476.936 285.914 485.623 301.896 493.693C300.905 498.014 300.059 502.38 299.621 506.806C299.362 509.607 299.259 512.452 299.602 515.268ZM705.519 585.068C717.77 593.611 730.358 601.658 743.361 608.954C754.203 614.99 765.318 620.501 776.758 625.261C753.827 626.437 730.876 626.82 707.924 626.395C685.064 625.913 662.244 624.638 639.47 622.541C650.021 618.206 660.254 613.119 670.233 607.537C682.373 600.68 694.098 593.115 705.519 585.068ZM776.763 625.255C786.264 629.153 795.959 632.522 805.867 635.181C814.141 637.339 822.524 638.995 831.012 640.026C811.053 642.517 791.025 644.313 770.947 645.413C750.685 646.457 730.403 646.791 710.131 646.415C720.708 644.425 731.154 641.78 741.448 638.606C753.456 634.819 765.221 630.323 776.763 625.255ZM1045.84 580.941C1043.55 580.825 1041.32 580.259 1039.15 579.476C1035.97 578.271 1032.98 576.602 1030.11 574.745C1047.95 568.171 1065.58 560.945 1082.9 553.051C1099 545.65 1114.82 537.669 1130.32 529.078C1116.36 539.12 1102.04 548.639 1087.39 557.622C1073.81 565.879 1059.96 573.671 1045.84 580.941Z" stroke="#4A5568" stroke-width="2" stroke-miterlimit="10"/>
</g>
<defs>
<radialGradient id="paint0_radial" cx="0" cy="0" r="1" gradientUnits="userSpaceOnUse" gradientTransform="translate(720 248.534) rotate(90) scale(361.673 728.405)">
<stop stop-color="white" stop-opacity="0.63"/>
<stop offset="1" stop-color="white" stop-opacity="0"/>
</radialGradient>
</defs>
</svg>
